<?xml version="1.0" encoding="UTF-8" standalone="no"?>
<!DOCTYPE svg PUBLIC "-//W3C//DTD SVG 1.1//EN"
 "http://www.w3.org/Graphics/SVG/1.1/DTD/svg11.dtd">
<!-- Generated by graphviz version 2.40.1 (20161225.0304)
 -->
<!-- Title: MV.SoundManager.Play Pages: 1 -->
<svg width="616pt" height="180pt"
 viewBox="0.00 0.00 616.00 180.00" xmlns="http://www.w3.org/2000/svg" xmlns:xlink="http://www.w3.org/1999/xlink">
<g id="graph0" class="graph" transform="scale(1 1) rotate(0) translate(4 176)">
<title>MV.SoundManager.Play</title>
<polygon fill="#ffffff" stroke="transparent" points="-4,4 -4,-176 612,-176 612,4 -4,4"/>
<!-- Node0 -->
<g id="node1" class="node">
<title>Node0</title>
<polygon fill="#bfbfbf" stroke="#000000" points="0,-76.5 0,-95.5 122,-95.5 122,-76.5 0,-76.5"/>
<text text-anchor="middle" x="61" y="-83.5" font-family="Helvetica,sans-Serif" font-size="10.00" fill="#000000">MV.SoundManager.Play</text>
</g>
<!-- Node1 -->
<g id="node2" class="node">
<title>Node1</title>
<g id="a_node2"><a xlink:href="class_m_v_1_1_base_enemy.html#a0731c94fe7353c60e3eaaf660023109a" target="_top" xlink:title="Method for giving Enemy damage from Player ">
<polygon fill="#ffffff" stroke="#000000" points="174.5,-152.5 174.5,-171.5 293.5,-171.5 293.5,-152.5 174.5,-152.5"/>
<text text-anchor="middle" x="234" y="-159.5" font-family="Helvetica,sans-Serif" font-size="10.00" fill="#000000">MV.BaseEnemy.GetHit</text>
</a>
</g>
</g>
<!-- Node0&#45;&gt;Node1 -->
<g id="edge1" class="edge">
<title>Node0&#45;&gt;Node1</title>
<path fill="none" stroke="#191970" d="M82.7622,-101.2488C101.8289,-113.9948 130.6861,-131.8323 158,-143 167.064,-146.706 177.0412,-149.8303 186.701,-152.4069"/>
<polygon fill="#191970" stroke="#191970" points="84.723,-98.3497 74.4851,-95.6229 80.788,-104.139 84.723,-98.3497"/>
</g>
<!-- Node2 -->
<g id="node3" class="node">
<title>Node2</title>
<g id="a_node3"><a xlink:href="class_m_v_1_1_base_enemy.html#af8593bde67bb1e0b92bde5cfb270f204" target="_top" xlink:title="Do custom event when died, need set useCustomDeath = true Need to destroy GameObject manually with th...">
<polygon fill="#ffffff" stroke="#000000" points="158,-114.5 158,-133.5 310,-133.5 310,-114.5 158,-114.5"/>
<text text-anchor="middle" x="234" y="-121.5" font-family="Helvetica,sans-Serif" font-size="10.00" fill="#000000">MV.BaseEnemy.CustomDeath</text>
</a>
</g>
</g>
<!-- Node0&#45;&gt;Node2 -->
<g id="edge2" class="edge">
<title>Node0&#45;&gt;Node2</title>
<path fill="none" stroke="#191970" d="M114.5051,-97.7526C138.9673,-103.1258 167.5707,-109.4086 190.6587,-114.4799"/>
<polygon fill="#191970" stroke="#191970" points="115.1733,-94.316 104.6552,-95.589 113.6714,-101.153 115.1733,-94.316"/>
</g>
<!-- Node3 -->
<g id="node4" class="node">
<title>Node3</title>
<g id="a_node4"><a xlink:href="class_m_v_1_1_player.html#a3817005a036c9ada462afcfc7cb77644" target="_top" xlink:title="Method for giving player damage ">
<polygon fill="#ffffff" stroke="#000000" points="187,-76.5 187,-95.5 281,-95.5 281,-76.5 187,-76.5"/>
<text text-anchor="middle" x="234" y="-83.5" font-family="Helvetica,sans-Serif" font-size="10.00" fill="#000000">MV.Player.GetHit</text>
</a>
</g>
</g>
<!-- Node0&#45;&gt;Node3 -->
<g id="edge3" class="edge">
<title>Node0&#45;&gt;Node3</title>
<path fill="none" stroke="#191970" d="M132.5433,-86C150.8667,-86 170.1136,-86 186.8591,-86"/>
<polygon fill="#191970" stroke="#191970" points="132.4805,-82.5001 122.4804,-86 132.4804,-89.5001 132.4805,-82.5001"/>
</g>
<!-- Node4 -->
<g id="node5" class="node">
<title>Node4</title>
<g id="a_node5"><a xlink:href="class_m_v_1_1_player.html#ab3cb10f0430ba1bd83c26e54daa72b42" target="_top" xlink:title="Get player position ">
<polygon fill="#ffffff" stroke="#000000" points="176,-38.5 176,-57.5 292,-57.5 292,-38.5 176,-38.5"/>
<text text-anchor="middle" x="234" y="-45.5" font-family="Helvetica,sans-Serif" font-size="10.00" fill="#000000">MV.Player.GetPosition</text>
</a>
</g>
</g>
<!-- Node0&#45;&gt;Node4 -->
<g id="edge4" class="edge">
<title>Node0&#45;&gt;Node4</title>
<path fill="none" stroke="#191970" d="M114.5051,-74.2474C138.9673,-68.8742 167.5707,-62.5914 190.6587,-57.5201"/>
<polygon fill="#191970" stroke="#191970" points="113.6714,-70.847 104.6552,-76.411 115.1733,-77.684 113.6714,-70.847"/>
</g>
<!-- Node8 -->
<g id="node9" class="node">
<title>Node8</title>
<g id="a_node9"><a xlink:href="class_m_v_1_1_projectile_manager.html#a80de73f7fa3e19047c6632cf558ad592" target="_top" xlink:title="Spawn new projectile ">
<polygon fill="#ffffff" stroke="#000000" points="161,-.5 161,-19.5 307,-19.5 307,-.5 161,-.5"/>
<text text-anchor="middle" x="234" y="-7.5" font-family="Helvetica,sans-Serif" font-size="10.00" fill="#000000">MV.ProjectileManager.Spawn</text>
</a>
</g>
</g>
<!-- Node0&#45;&gt;Node8 -->
<g id="edge8" class="edge">
<title>Node0&#45;&gt;Node8</title>
<path fill="none" stroke="#191970" d="M82.7622,-70.7512C101.8289,-58.0052 130.6861,-40.1677 158,-29 167.064,-25.294 177.0412,-22.1697 186.701,-19.5931"/>
<polygon fill="#191970" stroke="#191970" points="80.788,-67.861 74.4851,-76.3771 84.723,-73.6503 80.788,-67.861"/>
</g>
<!-- Node5 -->
<g id="node6" class="node">
<title>Node5</title>
<g id="a_node6"><a xlink:href="class_m_v_1_1_game_script.html#a2703ec551581054c2cd5b7426e81cfd8" target="_top" xlink:title="Load room referenced by MVMain.Room.activeroomData ">
<polygon fill="#ffffff" stroke="#000000" points="346,-57.5 346,-76.5 483,-76.5 483,-57.5 346,-57.5"/>
<text text-anchor="middle" x="414.5" y="-64.5" font-family="Helvetica,sans-Serif" font-size="10.00" fill="#000000">MV.GameScript.LoadRoom</text>
</a>
</g>
</g>
<!-- Node4&#45;&gt;Node5 -->
<g id="edge5" class="edge">
<title>Node4&#45;&gt;Node5</title>
<path fill="none" stroke="#191970" d="M302.3098,-55.1905C316.5429,-56.6887 331.551,-58.2685 345.7981,-59.7682"/>
<polygon fill="#191970" stroke="#191970" points="302.4164,-51.6825 292.1049,-54.1163 301.6835,-58.644 302.4164,-51.6825"/>
</g>
<!-- Node6 -->
<g id="node7" class="node">
<title>Node6</title>
<g id="a_node7"><a xlink:href="class_m_v_1_1_game_script.html#afd944b682ddbb94d2c307fae3308adde" target="_top" xlink:title="Called when player come into teleporter tiles ">
<polygon fill="#ffffff" stroke="#000000" points="352,-19.5 352,-38.5 477,-38.5 477,-19.5 352,-19.5"/>
<text text-anchor="middle" x="414.5" y="-26.5" font-family="Helvetica,sans-Serif" font-size="10.00" fill="#000000">MV.GameScript.Teleport</text>
</a>
</g>
</g>
<!-- Node4&#45;&gt;Node6 -->
<g id="edge6" class="edge">
<title>Node4&#45;&gt;Node6</title>
<path fill="none" stroke="#191970" d="M302.1101,-40.8305C318.4259,-39.1131 335.7706,-37.2873 351.827,-35.5972"/>
<polygon fill="#191970" stroke="#191970" points="301.6835,-37.356 292.1049,-41.8837 302.4164,-44.3175 301.6835,-37.356"/>
</g>
<!-- Node7 -->
<g id="node8" class="node">
<title>Node7</title>
<g id="a_node8"><a xlink:href="class_m_v_1_1_player.html#adb3180f04b31a09f7aaf1df41782da59" target="_top" xlink:title="Method for removing player after dead, and forcing game over ">
<polygon fill="#ffffff" stroke="#000000" points="519,-19.5 519,-38.5 608,-38.5 608,-19.5 519,-19.5"/>
<text text-anchor="middle" x="563.5" y="-26.5" font-family="Helvetica,sans-Serif" font-size="10.00" fill="#000000">MV.Player.Dead</text>
</a>
</g>
</g>
<!-- Node6&#45;&gt;Node7 -->
<g id="edge7" class="edge">
<title>Node6&#45;&gt;Node7</title>
<path fill="none" stroke="#191970" d="M487.4986,-29C498.2236,-29 508.9902,-29 518.9086,-29"/>
<polygon fill="#191970" stroke="#191970" points="487.2576,-25.5001 477.2576,-29 487.2575,-32.5001 487.2576,-25.5001"/>
</g>
</g>
</svg>
