<?xml version="1.0" encoding="UTF-8" standalone="no"?>
<!DOCTYPE svg PUBLIC "-//W3C//DTD SVG 1.1//EN"
 "http://www.w3.org/Graphics/SVG/1.1/DTD/svg11.dtd">
<!-- Generated by graphviz version 2.40.1 (20161225.0304)
 -->
<!-- Title: MV.MVUtility.ComplexMult Pages: 1 -->
<svg width="312pt" height="66pt"
 viewBox="0.00 0.00 312.00 66.00" xmlns="http://www.w3.org/2000/svg" xmlns:xlink="http://www.w3.org/1999/xlink">
<g id="graph0" class="graph" transform="scale(1 1) rotate(0) translate(4 62)">
<title>MV.MVUtility.ComplexMult</title>
<polygon fill="#ffffff" stroke="transparent" points="-4,4 -4,-62 308,-62 308,4 -4,4"/>
<!-- Node4 -->
<g id="node1" class="node">
<title>Node4</title>
<polygon fill="#bfbfbf" stroke="#000000" points="0,-19.5 0,-38.5 136,-38.5 136,-19.5 0,-19.5"/>
<text text-anchor="middle" x="68" y="-26.5" font-family="Helvetica,sans-Serif" font-size="10.00" fill="#000000">MV.MVUtility.ComplexMult</text>
</g>
<!-- Node5 -->
<g id="node2" class="node">
<title>Node5</title>
<g id="a_node2"><a xlink:href="class_m_v_1_1_m_v_utility.html#a9a060dbed3ed6ddce59049debbc58237" target="_top" xlink:title="Rotate aVec by aDegree counter clockwise ">
<polygon fill="#ffffff" stroke="#000000" points="172,-38.5 172,-57.5 304,-57.5 304,-38.5 172,-38.5"/>
<text text-anchor="middle" x="238" y="-45.5" font-family="Helvetica,sans-Serif" font-size="10.00" fill="#000000">MV.MVUtility.RotateCCW</text>
</a>
</g>
</g>
<!-- Node4&#45;&gt;Node5 -->
<g id="edge1" class="edge">
<title>Node4&#45;&gt;Node5</title>
<path fill="none" stroke="#191970" d="M146.1492,-37.7343C154.7077,-38.6909 163.3595,-39.6578 171.7544,-40.5961"/>
<polygon fill="#191970" stroke="#191970" points="146.4929,-34.251 136.166,-36.6185 145.7153,-41.2077 146.4929,-34.251"/>
</g>
<!-- Node6 -->
<g id="node3" class="node">
<title>Node6</title>
<g id="a_node3"><a xlink:href="class_m_v_1_1_m_v_utility.html#af9acb2732c3ea941e26d7fd07152fa88" target="_top" xlink:title="Rotate aVec by aDegree clockwise ">
<polygon fill="#ffffff" stroke="#000000" points="175.5,-.5 175.5,-19.5 300.5,-19.5 300.5,-.5 175.5,-.5"/>
<text text-anchor="middle" x="238" y="-7.5" font-family="Helvetica,sans-Serif" font-size="10.00" fill="#000000">MV.MVUtility.RotateCW</text>
</a>
</g>
</g>
<!-- Node4&#45;&gt;Node6 -->
<g id="edge2" class="edge">
<title>Node4&#45;&gt;Node6</title>
<path fill="none" stroke="#191970" d="M146.2547,-20.2539C155.9978,-19.165 165.8599,-18.0627 175.3245,-17.0049"/>
<polygon fill="#191970" stroke="#191970" points="145.7153,-16.7923 136.166,-21.3815 146.4929,-23.749 145.7153,-16.7923"/>
</g>
</g>
</svg>
