<?xml version="1.0" encoding="UTF-8" standalone="no"?>
<!DOCTYPE svg PUBLIC "-//W3C//DTD SVG 1.1//EN"
 "http://www.w3.org/Graphics/SVG/1.1/DTD/svg11.dtd">
<!-- Generated by graphviz version 2.40.1 (20161225.0304)
 -->
<!-- Title: MV.BaseEnemyBuff.SetDefault Pages: 1 -->
<svg width="516pt" height="28pt"
 viewBox="0.00 0.00 516.00 28.00" xmlns="http://www.w3.org/2000/svg" xmlns:xlink="http://www.w3.org/1999/xlink">
<g id="graph0" class="graph" transform="scale(1 1) rotate(0) translate(4 24)">
<title>MV.BaseEnemyBuff.SetDefault</title>
<polygon fill="#ffffff" stroke="transparent" points="-4,4 -4,-24 512,-24 512,4 -4,4"/>
<!-- Node2 -->
<g id="node1" class="node">
<title>Node2</title>
<polygon fill="#bfbfbf" stroke="#000000" points="0,-.5 0,-19.5 155,-19.5 155,-.5 0,-.5"/>
<text text-anchor="middle" x="77.5" y="-7.5" font-family="Helvetica,sans-Serif" font-size="10.00" fill="#000000">MV.BaseEnemyBuff.SetDefault</text>
</g>
<!-- Node3 -->
<g id="node2" class="node">
<title>Node3</title>
<g id="a_node2"><a xlink:href="class_m_v_1_1_m_v_utility.html#a2424e8e9693e53ace1ab8ba2ad9d99ff" target="_top" xlink:title="Create new buff for enemy ">
<polygon fill="#ffffff" stroke="#000000" points="191,-.5 191,-19.5 347,-19.5 347,-.5 191,-.5"/>
<text text-anchor="middle" x="269" y="-7.5" font-family="Helvetica,sans-Serif" font-size="10.00" fill="#000000">MV.MVUtility.CreateEnemyBuff</text>
</a>
</g>
</g>
<!-- Node2&#45;&gt;Node3 -->
<g id="edge1" class="edge">
<title>Node2&#45;&gt;Node3</title>
<path fill="none" stroke="#191970" d="M165.1609,-10C173.7677,-10 182.4624,-10 190.964,-10"/>
<polygon fill="#191970" stroke="#191970" points="165.1144,-6.5001 155.1143,-10 165.1143,-13.5001 165.1144,-6.5001"/>
</g>
<!-- Node4 -->
<g id="node3" class="node">
<title>Node4</title>
<g id="a_node3"><a xlink:href="class_m_v_1_1_base_enemy.html#a84f34ea5445668a0ad1bab3af33d3b18" target="_top" xlink:title="Method for giving enemy buff ">
<polygon fill="#ffffff" stroke="#000000" points="383,-.5 383,-19.5 508,-19.5 508,-.5 383,-.5"/>
<text text-anchor="middle" x="445.5" y="-7.5" font-family="Helvetica,sans-Serif" font-size="10.00" fill="#000000">MV.BaseEnemy.GetBuff</text>
</a>
</g>
</g>
<!-- Node3&#45;&gt;Node4 -->
<g id="edge2" class="edge">
<title>Node3&#45;&gt;Node4</title>
<path fill="none" stroke="#191970" d="M357.2616,-10C365.8609,-10 374.4601,-10 382.7325,-10"/>
<polygon fill="#191970" stroke="#191970" points="357.1863,-6.5001 347.1862,-10 357.1862,-13.5001 357.1863,-6.5001"/>
</g>
</g>
</svg>
