<?xml version="1.0" encoding="UTF-8" standalone="no"?>
<!DOCTYPE svg PUBLIC "-//W3C//DTD SVG 1.1//EN"
 "http://www.w3.org/Graphics/SVG/1.1/DTD/svg11.dtd">
<!-- Generated by graphviz version 2.40.1 (20161225.0304)
 -->
<!-- Title: MV.WorldManager Pages: 1 -->
<svg width="194pt" height="95pt"
 viewBox="0.00 0.00 194.00 95.00" xmlns="http://www.w3.org/2000/svg" xmlns:xlink="http://www.w3.org/1999/xlink">
<g id="graph0" class="graph" transform="scale(1 1) rotate(0) translate(4 91)">
<title>MV.WorldManager</title>
<polygon fill="#ffffff" stroke="transparent" points="-4,4 -4,-91 190,-91 190,4 -4,4"/>
<!-- Node2 -->
<g id="node1" class="node">
<title>Node2</title>
<polygon fill="#bfbfbf" stroke="#000000" points="44,-.5 44,-19.5 142,-19.5 142,-.5 44,-.5"/>
<text text-anchor="middle" x="93" y="-7.5" font-family="Helvetica,sans-Serif" font-size="10.00" fill="#000000">MV.WorldManager</text>
</g>
<!-- Node3 -->
<g id="node2" class="node">
<title>Node3</title>
<polygon fill="#ffffff" stroke="#bfbfbf" points="0,-67.5 0,-86.5 84,-86.5 84,-67.5 0,-67.5"/>
<text text-anchor="middle" x="42" y="-74.5" font-family="Helvetica,sans-Serif" font-size="10.00" fill="#000000">MonoBehaviour</text>
</g>
<!-- Node3&#45;&gt;Node2 -->
<g id="edge1" class="edge">
<title>Node3&#45;&gt;Node2</title>
<path fill="none" stroke="#191970" d="M55.4361,-59.3486C65.1256,-46.6194 77.8348,-29.9229 85.7065,-19.5817"/>
<polygon fill="#191970" stroke="#191970" points="52.579,-57.3236 49.3071,-67.4005 58.1489,-61.5634 52.579,-57.3236"/>
</g>
<!-- Node4 -->
<g id="node3" class="node">
<title>Node4</title>
<g id="a_node3"><a xlink:href="class_m_v_1_1_chunk_data.html" target="_top" xlink:title="Class for each world chunk data ">
<polygon fill="#ffffff" stroke="#000000" points="102,-67.5 102,-86.5 186,-86.5 186,-67.5 102,-67.5"/>
<text text-anchor="middle" x="144" y="-74.5" font-family="Helvetica,sans-Serif" font-size="10.00" fill="#000000">MV.ChunkData</text>
</a>
</g>
</g>
<!-- Node4&#45;&gt;Node2 -->
<g id="edge2" class="edge">
<title>Node4&#45;&gt;Node2</title>
<path fill="none" stroke="#9a32cd" stroke-dasharray="5,2" d="M130.5639,-59.3486C120.8744,-46.6194 108.1652,-29.9229 100.2935,-19.5817"/>
<polygon fill="#9a32cd" stroke="#9a32cd" points="127.8511,-61.5634 136.6929,-67.4005 133.421,-57.3236 127.8511,-61.5634"/>
<text text-anchor="middle" x="132" y="-41" font-family="Helvetica,sans-Serif" font-size="10.00" fill="#000000"> map</text>
</g>
</g>
</svg>
