<?xml version="1.0" encoding="UTF-8" standalone="no"?>
<!DOCTYPE svg PUBLIC "-//W3C//DTD SVG 1.1//EN"
 "http://www.w3.org/Graphics/SVG/1.1/DTD/svg11.dtd">
<!-- Generated by graphviz version 2.40.1 (20161225.0304)
 -->
<!-- Title: MV.RoomManager.GetLocalChunkPos Pages: 1 -->
<svg width="592pt" height="28pt"
 viewBox="0.00 0.00 592.00 28.00" xmlns="http://www.w3.org/2000/svg" xmlns:xlink="http://www.w3.org/1999/xlink">
<g id="graph0" class="graph" transform="scale(1 1) rotate(0) translate(4 24)">
<title>MV.RoomManager.GetLocalChunkPos</title>
<polygon fill="#ffffff" stroke="transparent" points="-4,4 -4,-24 588,-24 588,4 -4,4"/>
<!-- Node0 -->
<g id="node1" class="node">
<title>Node0</title>
<polygon fill="#bfbfbf" stroke="#000000" points="0,-.5 0,-19.5 186,-19.5 186,-.5 0,-.5"/>
<text text-anchor="middle" x="93" y="-7.5" font-family="Helvetica,sans-Serif" font-size="10.00" fill="#000000">MV.RoomManager.GetLocalChunkPos</text>
</g>
<!-- Node1 -->
<g id="node2" class="node">
<title>Node1</title>
<g id="a_node2"><a xlink:href="class_m_v_1_1_game_script.html#a607f2ccb10ed89b27d73b0c1809ca23f" target="_top" xlink:title="get chunk position in room from 3D position ">
<polygon fill="#ffffff" stroke="#000000" points="222,-.5 222,-19.5 396,-19.5 396,-.5 222,-.5"/>
<text text-anchor="middle" x="309" y="-7.5" font-family="Helvetica,sans-Serif" font-size="10.00" fill="#000000">MV.GameScript.GetLocalChunkPos</text>
</a>
</g>
</g>
<!-- Node0&#45;&gt;Node1 -->
<g id="edge1" class="edge">
<title>Node0&#45;&gt;Node1</title>
<path fill="none" stroke="#191970" d="M196.2347,-10C204.8348,-10 213.4752,-10 221.9373,-10"/>
<polygon fill="#191970" stroke="#191970" points="196.1707,-6.5001 186.1707,-10 196.1706,-13.5001 196.1707,-6.5001"/>
</g>
<!-- Node2 -->
<g id="node3" class="node">
<title>Node2</title>
<g id="a_node3"><a xlink:href="class_m_v_1_1_base_enemy.html#af8593bde67bb1e0b92bde5cfb270f204" target="_top" xlink:title="Do custom event when died, need set useCustomDeath = true Need to destroy GameObject manually with th...">
<polygon fill="#ffffff" stroke="#000000" points="432,-.5 432,-19.5 584,-19.5 584,-.5 432,-.5"/>
<text text-anchor="middle" x="508" y="-7.5" font-family="Helvetica,sans-Serif" font-size="10.00" fill="#000000">MV.BaseEnemy.CustomDeath</text>
</a>
</g>
</g>
<!-- Node1&#45;&gt;Node2 -->
<g id="edge2" class="edge">
<title>Node1&#45;&gt;Node2</title>
<path fill="none" stroke="#191970" d="M406.5597,-10C415.0047,-10 423.4684,-10 431.7072,-10"/>
<polygon fill="#191970" stroke="#191970" points="406.2843,-6.5001 396.2843,-10 406.2843,-13.5001 406.2843,-6.5001"/>
</g>
</g>
</svg>
