<?xml version="1.0" encoding="UTF-8" standalone="no"?>
<!DOCTYPE svg PUBLIC "-//W3C//DTD SVG 1.1//EN"
 "http://www.w3.org/Graphics/SVG/1.1/DTD/svg11.dtd">
<!-- Generated by graphviz version 2.40.1 (20161225.0304)
 -->
<!-- Title: MV.MVMain Pages: 1 -->
<!--zoomable 485 -->
<svg id="main" version="1.1" xmlns="http://www.w3.org/2000/svg" xmlns:xlink="http://www.w3.org/1999/xlink" xml:space="preserve" onload="init(evt)">
<style type="text/css"><![CDATA[
.edge:hover path { stroke: red; }
.edge:hover polygon { stroke: red; fill: red; }
]]></style>
<script type="text/javascript"><![CDATA[
var edges = document.getElementsByTagName('g');
if (edges && edges.length) {
  for (var i=0;i<edges.length;i++) {
    if (edges[i].id.substr(0,4)=='edge') {
      edges[i].setAttribute('class','edge');
    }
  }
}
]]></script>
        <defs>
                <circle id="rim" cx="0" cy="0" r="7"/>
                <circle id="rim2" cx="0" cy="0" r="3.5"/>
                <g id="zoomPlus">
                        <use xlink:href="#rim" fill="#404040">
                                <set attributeName="fill" to="#808080" begin="zoomplus.mouseover" end="zoomplus.mouseout"/>
                        </use>
                        <path d="M-4,0h8M0,-4v8" fill="none" stroke="white" stroke-width="1.5" pointer-events="none"/>
                </g>
                <g id="zoomMin">
                        <use xlink:href="#rim" fill="#404040">
                                <set attributeName="fill" to="#808080" begin="zoomminus.mouseover" end="zoomminus.mouseout"/>
                        </use>
                        <path d="M-4,0h8" fill="none" stroke="white" stroke-width="1.5" pointer-events="none"/>
                </g>
                <g id="dirArrow">
                        <path fill="none" stroke="white" stroke-width="1.5" d="M0,-3.0v7 M-2.5,-0.5L0,-3.0L2.5,-0.5"/>
                </g>
               <g id="resetDef">
                       <use xlink:href="#rim2" fill="#404040">
                               <set attributeName="fill" to="#808080" begin="reset.mouseover" end="reset.mouseout"/>
                       </use>
               </g>
        </defs>

<script type="text/javascript">
var viewWidth = 1223;
var viewHeight = 485;
var sectionId = 'dynsection-1';
</script>
<script xlink:href="svgpan.js"/>
<svg id="graph" class="graph">
<g id="viewport">
<title>MV.MVMain</title>
<polygon fill="#ffffff" stroke="transparent" points="-4,4 -4,-481 1219,-481 1219,4 -4,4"/>
<!-- Node2 -->
<g id="node1" class="node">
<title>Node2</title>
<polygon fill="#bfbfbf" stroke="#000000" points="1144,-285.5 1144,-304.5 1215,-304.5 1215,-285.5 1144,-285.5"/>
<text text-anchor="middle" x="1179.5" y="-292.5" font-family="Helvetica,sans-Serif" font-size="10.00" fill="#000000">MV.MVMain</text>
</g>
<!-- Node3 -->
<g id="node2" class="node">
<title>Node3</title>
<polygon fill="#ffffff" stroke="#bfbfbf" points="126,-323.5 126,-342.5 210,-342.5 210,-323.5 126,-323.5"/>
<text text-anchor="middle" x="168" y="-330.5" font-family="Helvetica,sans-Serif" font-size="10.00" fill="#000000">MonoBehaviour</text>
</g>
<!-- Node3&#45;&gt;Node2 -->
<g id="edge1" class="edge">
<title>Node3&#45;&gt;Node2</title>
<path fill="none" stroke="#191970" d="M209.3364,-345.3244C250.2538,-356.4218 314.8765,-371 372,-371 372,-371 372,-371 686,-371 764.0655,-371 783.9434,-364.5957 860,-347 893.274,-339.302 901.42,-336.0048 933,-323 941.2705,-319.5942 942.3877,-316.4142 951,-314 1017.3102,-295.412 1098.3495,-293.2699 1143.928,-293.8349"/>
<polygon fill="#191970" stroke="#191970" points="210.0349,-341.8861 199.4634,-342.589 208.1658,-348.632 210.0349,-341.8861"/>
</g>
<!-- Node4 -->
<g id="node3" class="node">
<title>Node4</title>
<g id="a_node3"><a xlink:href="class_m_v_1_1_sound_manager.html" target="_top" xlink:title="Class for playing sounds ">
<polygon fill="#ffffff" stroke="#000000" points="439,-49.5 439,-68.5 539,-68.5 539,-49.5 439,-49.5"/>
<text text-anchor="middle" x="489" y="-56.5" font-family="Helvetica,sans-Serif" font-size="10.00" fill="#000000">MV.SoundManager</text>
</a>
</g>
</g>
<!-- Node3&#45;&gt;Node4 -->
<g id="edge3" class="edge">
<title>Node3&#45;&gt;Node4</title>
<path fill="none" stroke="#191970" d="M175.4676,-314.2301C185.1782,-291.4014 203.7987,-252.5137 228,-225 298.0481,-145.3644 415.3583,-89.8028 465.3148,-68.568"/>
<polygon fill="#191970" stroke="#191970" points="172.2255,-312.9114 171.6448,-323.4903 178.6958,-315.5825 172.2255,-312.9114"/>
</g>
<!-- Node7 -->
<g id="node6" class="node">
<title>Node7</title>
<g id="a_node6"><a xlink:href="class_m_v_1_1_world_manager.html" target="_top" xlink:title="Class for all world data ">
<polygon fill="#ffffff" stroke="#000000" points="323,-445.5 323,-464.5 421,-464.5 421,-445.5 323,-445.5"/>
<text text-anchor="middle" x="372" y="-452.5" font-family="Helvetica,sans-Serif" font-size="10.00" fill="#000000">MV.WorldManager</text>
</a>
</g>
</g>
<!-- Node3&#45;&gt;Node7 -->
<g id="edge7" class="edge">
<title>Node3&#45;&gt;Node7</title>
<path fill="none" stroke="#191970" d="M176.0124,-351.8945C185.4839,-371.9019 203.1588,-402.9051 228,-420 255.8704,-439.1795 293.104,-447.8901 322.7277,-451.8263"/>
<polygon fill="#191970" stroke="#191970" points="179.1094,-350.2478 171.8127,-342.5661 172.7265,-353.1215 179.1094,-350.2478"/>
</g>
<!-- Node9 -->
<g id="node8" class="node">
<title>Node9</title>
<g id="a_node8"><a xlink:href="class_m_v_1_1_room_manager.html" target="_top" xlink:title="Class for managing active and available rooms ">
<polygon fill="#ffffff" stroke="#000000" points="323,-164.5 323,-183.5 421,-183.5 421,-164.5 323,-164.5"/>
<text text-anchor="middle" x="372" y="-171.5" font-family="Helvetica,sans-Serif" font-size="10.00" fill="#000000">MV.RoomManager</text>
</a>
</g>
</g>
<!-- Node3&#45;&gt;Node9 -->
<g id="edge10" class="edge">
<title>Node3&#45;&gt;Node9</title>
<path fill="none" stroke="#191970" d="M188.347,-317.1413C230.3908,-284.3719 325.7517,-210.0465 359.709,-183.5798"/>
<polygon fill="#191970" stroke="#191970" points="186.1897,-314.3852 180.454,-323.2932 190.4929,-319.9063 186.1897,-314.3852"/>
</g>
<!-- Node12 -->
<g id="node11" class="node">
<title>Node12</title>
<g id="a_node11"><a xlink:href="class_m_v_1_1_music_manager.html" target="_top" xlink:title="Class for playing background music ">
<polygon fill="#ffffff" stroke="#000000" points="637,-399.5 637,-418.5 735,-418.5 735,-399.5 637,-399.5"/>
<text text-anchor="middle" x="686" y="-406.5" font-family="Helvetica,sans-Serif" font-size="10.00" fill="#000000">MV.MusicManager</text>
</a>
</g>
</g>
<!-- Node3&#45;&gt;Node12 -->
<g id="edge14" class="edge">
<title>Node3&#45;&gt;Node12</title>
<path fill="none" stroke="#191970" d="M182.4443,-350.5571C193.516,-362.616 209.9259,-377.7134 228,-385 367.5718,-441.2689 550.6942,-427.5347 636.9872,-416.4914"/>
<polygon fill="#191970" stroke="#191970" points="184.8977,-348.046 175.6773,-342.8273 179.6309,-352.6569 184.8977,-348.046"/>
</g>
<!-- Node13 -->
<g id="node12" class="node">
<title>Node13</title>
<g id="a_node12"><a xlink:href="class_m_v_1_1_game_script.html" target="_top" xlink:title="Core for MV functionality ">
<polygon fill="#ffffff" stroke="#000000" points="964.5,-247.5 964.5,-266.5 1050.5,-266.5 1050.5,-247.5 964.5,-247.5"/>
<text text-anchor="middle" x="1007.5" y="-254.5" font-family="Helvetica,sans-Serif" font-size="10.00" fill="#000000">MV.GameScript</text>
</a>
</g>
</g>
<!-- Node3&#45;&gt;Node13 -->
<g id="edge16" class="edge">
<title>Node3&#45;&gt;Node13</title>
<path fill="none" stroke="#191970" d="M220.2768,-333C261.489,-333 320.4134,-333 372,-333 372,-333 372,-333 806.5,-333 865.0778,-333 881.3051,-323.5499 933,-296 942.1901,-291.1023 942.1124,-286.4272 951,-281 960.1865,-275.3903 970.9188,-270.4713 980.5472,-266.5711"/>
<polygon fill="#191970" stroke="#191970" points="220.196,-329.5001 210.1959,-333 220.1959,-336.5001 220.196,-329.5001"/>
</g>
<!-- Node16 -->
<g id="node15" class="node">
<title>Node16</title>
<g id="a_node15"><a xlink:href="class_m_v_1_1_base_object.html" target="_top" xlink:title="Base class of nearly all physiscal objects ">
<polygon fill="#ffffff" stroke="#000000" points="338,-276.5 338,-295.5 406,-295.5 406,-276.5 338,-276.5"/>
<text text-anchor="middle" x="372" y="-283.5" font-family="Helvetica,sans-Serif" font-size="10.00" fill="#000000">BaseObject</text>
</a>
</g>
</g>
<!-- Node3&#45;&gt;Node16 -->
<g id="edge20" class="edge">
<title>Node3&#45;&gt;Node16</title>
<path fill="none" stroke="#191970" d="M218.4114,-321.2221C221.6559,-320.4688 224.8736,-319.723 228,-319 265.6079,-310.3032 308.7657,-300.4266 337.9501,-293.7632"/>
<polygon fill="#191970" stroke="#191970" points="217.6086,-317.8153 208.6613,-323.4894 219.1942,-324.6334 217.6086,-317.8153"/>
</g>
<!-- Node4&#45;&gt;Node2 -->
<g id="edge2" class="edge">
<title>Node4&#45;&gt;Node2</title>
<path fill="none" stroke="#9a32cd" stroke-dasharray="5,2" d="M549.2847,-53.8879C588.2568,-51.0149 640.0907,-48 686,-48 686,-48 686,-48 1007.5,-48 1062.1707,-48 1087.8599,-41.8308 1126,-81 1155.3883,-111.1813 1173.7766,-247.5329 1178.3671,-285.285"/>
<polygon fill="#9a32cd" stroke="#9a32cd" points="548.8664,-50.4095 539.1584,-54.6525 549.3935,-57.3896 548.8664,-50.4095"/>
<text text-anchor="middle" x="806.5" y="-51" font-family="Helvetica,sans-Serif" font-size="10.00" fill="#000000"> Sound</text>
</g>
<!-- Node5 -->
<g id="node4" class="node">
<title>Node5</title>
<g id="a_node4"><a xlink:href="class_m_v_1_1_projectile_manager.html" target="_top" xlink:title="Class for spawning projectiles ">
<polygon fill="#ffffff" stroke="#000000" points="951,-361.5 951,-380.5 1064,-380.5 1064,-361.5 951,-361.5"/>
<text text-anchor="middle" x="1007.5" y="-368.5" font-family="Helvetica,sans-Serif" font-size="10.00" fill="#000000">MV.ProjectileManager</text>
</a>
</g>
</g>
<!-- Node5&#45;&gt;Node2 -->
<g id="edge4" class="edge">
<title>Node5&#45;&gt;Node2</title>
<path fill="none" stroke="#9a32cd" stroke-dasharray="5,2" d="M1057.3382,-358.7119C1079.0341,-352.4345 1104.3862,-343.8152 1126,-333 1141.6901,-325.1489 1157.8635,-312.9923 1168.2608,-304.5514"/>
<polygon fill="#9a32cd" stroke="#9a32cd" points="1056.3353,-355.358 1047.6536,-361.4307 1058.2274,-362.0975 1056.3353,-355.358"/>
<text text-anchor="middle" x="1104" y="-352" font-family="Helvetica,sans-Serif" font-size="10.00" fill="#000000"> Projectile</text>
</g>
<!-- Node6 -->
<g id="node5" class="node">
<title>Node6</title>
<g id="a_node5"><a xlink:href="class_m_v_1_1_difficulty_manager.html" target="_top" xlink:title="Class for managing difficulties ">
<polygon fill="#ffffff" stroke="#000000" points="952,-323.5 952,-342.5 1063,-342.5 1063,-323.5 952,-323.5"/>
<text text-anchor="middle" x="1007.5" y="-330.5" font-family="Helvetica,sans-Serif" font-size="10.00" fill="#000000">MV.DifficultyManager</text>
</a>
</g>
</g>
<!-- Node6&#45;&gt;Node2 -->
<g id="edge5" class="edge">
<title>Node6&#45;&gt;Node2</title>
<path fill="none" stroke="#9a32cd" stroke-dasharray="5,2" d="M1067.6855,-321.4907C1086.416,-317.7266 1107.1072,-313.3815 1126,-309 1131.8922,-307.6335 1138.1244,-306.0917 1144.1725,-304.5437"/>
<polygon fill="#9a32cd" stroke="#9a32cd" points="1066.9216,-318.074 1057.7984,-323.4608 1068.2896,-324.9391 1066.9216,-318.074"/>
<text text-anchor="middle" x="1104" y="-321" font-family="Helvetica,sans-Serif" font-size="10.00" fill="#000000"> Difficulty</text>
</g>
<!-- Node7&#45;&gt;Node2 -->
<g id="edge6" class="edge">
<title>Node7&#45;&gt;Node2</title>
<path fill="none" stroke="#9a32cd" stroke-dasharray="5,2" d="M431.4258,-455C474.8144,-455 535.0569,-455 588,-455 588,-455 588,-455 1007.5,-455 1068.002,-455 1083.0596,-430.6218 1126,-388 1151.5148,-362.6745 1168.9661,-322.6763 1176.0102,-304.5234"/>
<polygon fill="#9a32cd" stroke="#9a32cd" points="431.328,-451.5001 421.3279,-455 431.3279,-458.5001 431.328,-451.5001"/>
<text text-anchor="middle" x="806.5" y="-458" font-family="Helvetica,sans-Serif" font-size="10.00" fill="#000000"> World</text>
</g>
<!-- Node8 -->
<g id="node7" class="node">
<title>Node8</title>
<g id="a_node7"><a xlink:href="class_m_v_1_1_chunk_data.html" target="_top" xlink:title="Class for each world chunk data ">
<polygon fill="#ffffff" stroke="#000000" points="126,-457.5 126,-476.5 210,-476.5 210,-457.5 126,-457.5"/>
<text text-anchor="middle" x="168" y="-464.5" font-family="Helvetica,sans-Serif" font-size="10.00" fill="#000000">MV.ChunkData</text>
</a>
</g>
</g>
<!-- Node8&#45;&gt;Node7 -->
<g id="edge8" class="edge">
<title>Node8&#45;&gt;Node7</title>
<path fill="none" stroke="#9a32cd" stroke-dasharray="5,2" d="M220.6295,-463.9041C252.1931,-462.0475 292.0688,-459.7018 322.9686,-457.8842"/>
<polygon fill="#9a32cd" stroke="#9a32cd" points="220.0461,-460.4323 210.2689,-464.5136 220.4572,-467.4202 220.0461,-460.4323"/>
<text text-anchor="middle" x="266.5" y="-466" font-family="Helvetica,sans-Serif" font-size="10.00" fill="#000000"> map</text>
</g>
<!-- Node9&#45;&gt;Node2 -->
<g id="edge9" class="edge">
<title>Node9&#45;&gt;Node2</title>
<path fill="none" stroke="#9a32cd" stroke-dasharray="5,2" d="M395.6848,-159.0798C434.3651,-136.1832 514.1961,-95 588,-95 588,-95 588,-95 1007.5,-95 1109.1682,-95 1163.8521,-245.4028 1176.5841,-285.3536"/>
<polygon fill="#9a32cd" stroke="#9a32cd" points="393.5137,-156.3024 386.7662,-164.4708 397.1348,-162.293 393.5137,-156.3024"/>
<text text-anchor="middle" x="806.5" y="-98" font-family="Helvetica,sans-Serif" font-size="10.00" fill="#000000"> Room</text>
</g>
<!-- Node10 -->
<g id="node9" class="node">
<title>Node10</title>
<g id="a_node9"><a xlink:href="class_m_v_1_1_room_data.html" target="_top" xlink:title="Data for each room ">
<polygon fill="#ffffff" stroke="#000000" points="127,-100.5 127,-119.5 209,-119.5 209,-100.5 127,-100.5"/>
<text text-anchor="middle" x="168" y="-107.5" font-family="Helvetica,sans-Serif" font-size="10.00" fill="#000000">MV.RoomData</text>
</a>
</g>
</g>
<!-- Node10&#45;&gt;Node9 -->
<g id="edge11" class="edge">
<title>Node10&#45;&gt;Node9</title>
<path fill="none" stroke="#9a32cd" stroke-dasharray="5,2" d="M208.3054,-122.6448C247.4986,-134.9407 306.1577,-153.3436 341.584,-164.4577"/>
<polygon fill="#9a32cd" stroke="#9a32cd" points="209.13,-119.2354 198.5409,-119.5814 207.0346,-125.9144 209.13,-119.2354"/>
<text text-anchor="middle" x="266.5" y="-154" font-family="Helvetica,sans-Serif" font-size="10.00" fill="#000000"> activeRoomData</text>
</g>
<!-- Node11 -->
<g id="node10" class="node">
<title>Node11</title>
<polygon fill="#ffffff" stroke="#bfbfbf" points="0,-100.5 0,-119.5 89,-119.5 89,-100.5 0,-100.5"/>
<text text-anchor="middle" x="44.5" y="-107.5" font-family="Helvetica,sans-Serif" font-size="10.00" fill="#000000">ScriptableObject</text>
</g>
<!-- Node11&#45;&gt;Node10 -->
<g id="edge12" class="edge">
<title>Node11&#45;&gt;Node10</title>
<path fill="none" stroke="#191970" d="M99.3517,-110C108.5613,-110 117.9781,-110 126.769,-110"/>
<polygon fill="#191970" stroke="#191970" points="99.0864,-106.5001 89.0863,-110 99.0863,-113.5001 99.0864,-106.5001"/>
</g>
<!-- Node12&#45;&gt;Node2 -->
<g id="edge13" class="edge">
<title>Node12&#45;&gt;Node2</title>
<path fill="none" stroke="#9a32cd" stroke-dasharray="5,2" d="M745.277,-412.2832C820.4396,-415.0263 953.5464,-415.1233 1064,-390 1093.1362,-383.3728 1102.2883,-382.1823 1126,-364 1147.8925,-347.2127 1165.6972,-319.42 1174.1613,-304.7551"/>
<polygon fill="#9a32cd" stroke="#9a32cd" points="745.1942,-408.7773 735.0642,-411.8809 744.9186,-415.7719 745.1942,-408.7773"/>
<text text-anchor="middle" x="905.5" y="-415" font-family="Helvetica,sans-Serif" font-size="10.00" fill="#000000"> Music</text>
</g>
<!-- Node13&#45;&gt;Node2 -->
<g id="edge15" class="edge">
<title>Node13&#45;&gt;Node2</title>
<path fill="none" stroke="#9a32cd" stroke-dasharray="5,2" d="M1060.8284,-259.1236C1081.4723,-260.9087 1105.1157,-264.148 1126,-270 1138.8336,-273.5961 1152.4293,-279.9868 1162.7037,-285.4064"/>
<polygon fill="#9a32cd" stroke="#9a32cd" points="1060.8894,-255.618 1050.6497,-258.3378 1060.3506,-262.5972 1060.8894,-255.618"/>
<text text-anchor="middle" x="1104" y="-273" font-family="Helvetica,sans-Serif" font-size="10.00" fill="#000000"> Core</text>
</g>
<!-- Node14 -->
<g id="node13" class="node">
<title>Node14</title>
<polygon fill="#ffffff" stroke="#bfbfbf" points="788.5,-285.5 788.5,-304.5 824.5,-304.5 824.5,-285.5 788.5,-285.5"/>
<text text-anchor="middle" x="806.5" y="-292.5" font-family="Helvetica,sans-Serif" font-size="10.00" fill="#000000">Text</text>
</g>
<!-- Node14&#45;&gt;Node13 -->
<g id="edge17" class="edge">
<title>Node14&#45;&gt;Node13</title>
<path fill="none" stroke="#9a32cd" stroke-dasharray="5,2" d="M834.6643,-290.0359C860.3186,-285.477 899.2382,-278.4675 933,-272 943.1072,-270.0638 953.9715,-267.915 964.1933,-265.8628"/>
<polygon fill="#9a32cd" stroke="#9a32cd" points="833.7712,-286.6396 824.5354,-291.831 834.9928,-293.5322 833.7712,-286.6396"/>
<text text-anchor="middle" x="905.5" y="-284" font-family="Helvetica,sans-Serif" font-size="10.00" fill="#000000"> scoreText</text>
</g>
<!-- Node15 -->
<g id="node14" class="node">
<title>Node15</title>
<g id="a_node14"><a xlink:href="class_m_v_1_1_base_enemy.html" target="_top" xlink:title="Base class for enemies ">
<polygon fill="#ffffff" stroke="#000000" points="762.5,-247.5 762.5,-266.5 850.5,-266.5 850.5,-247.5 762.5,-247.5"/>
<text text-anchor="middle" x="806.5" y="-254.5" font-family="Helvetica,sans-Serif" font-size="10.00" fill="#000000">MV.BaseEnemy</text>
</a>
</g>
</g>
<!-- Node15&#45;&gt;Node13 -->
<g id="edge18" class="edge">
<title>Node15&#45;&gt;Node13</title>
<path fill="none" stroke="#9a32cd" stroke-dasharray="5,2" d="M860.8315,-257C893.2727,-257 933.9144,-257 964.1837,-257"/>
<polygon fill="#9a32cd" stroke="#9a32cd" points="860.6103,-253.5001 850.6103,-257 860.6103,-260.5001 860.6103,-253.5001"/>
<text text-anchor="middle" x="905.5" y="-260" font-family="Helvetica,sans-Serif" font-size="10.00" fill="#000000"> bossEnemy</text>
</g>
<!-- Node16&#45;&gt;Node15 -->
<g id="edge19" class="edge">
<title>Node16&#45;&gt;Node15</title>
<path fill="none" stroke="#191970" d="M416.5361,-285.2688C485.1043,-283.8099 620.5906,-279.6061 735,-268 743.8715,-267.1 753.3219,-265.8532 762.3476,-264.521"/>
<polygon fill="#191970" stroke="#191970" points="416.0463,-281.7779 406.1194,-285.4801 416.1883,-288.7765 416.0463,-281.7779"/>
</g>
<!-- Node17 -->
<g id="node16" class="node">
<title>Node17</title>
<g id="a_node16"><a xlink:href="class_m_v_1_1_player.html" target="_top" xlink:title="Class for player ">
<polygon fill="#ffffff" stroke="#000000" points="557,-238.5 557,-257.5 619,-257.5 619,-238.5 557,-238.5"/>
<text text-anchor="middle" x="588" y="-245.5" font-family="Helvetica,sans-Serif" font-size="10.00" fill="#000000">MV.Player</text>
</a>
</g>
</g>
<!-- Node16&#45;&gt;Node17 -->
<g id="edge22" class="edge">
<title>Node16&#45;&gt;Node17</title>
<path fill="none" stroke="#191970" d="M415.9226,-276.5188C423.6026,-274.9478 431.5252,-273.3822 439,-272 479.5794,-264.4964 526.6256,-257.1414 556.8216,-252.5924"/>
<polygon fill="#191970" stroke="#191970" points="415.105,-273.1138 406.0244,-278.5722 416.5269,-279.9679 415.105,-273.1138"/>
</g>
<!-- Node17&#45;&gt;Node13 -->
<g id="edge24" class="edge">
<title>Node17&#45;&gt;Node13</title>
<path fill="none" stroke="#9a32cd" stroke-dasharray="5,2" d="M629.1224,-240.2888C682.4353,-231.332 778.2683,-218.7725 860,-227 898.3508,-230.8606 941.4744,-240.2316 971.1395,-247.4816"/>
<polygon fill="#9a32cd" stroke="#9a32cd" points="628.3042,-236.8781 619.0435,-242.0249 629.4925,-243.7765 628.3042,-236.8781"/>
<text text-anchor="middle" x="806.5" y="-230" font-family="Helvetica,sans-Serif" font-size="10.00" fill="#000000"> playerPlayer</text>
</g>
<!-- Node17&#45;&gt;Node15 -->
<g id="edge21" class="edge">
<title>Node17&#45;&gt;Node15</title>
<path fill="none" stroke="#9a32cd" stroke-dasharray="5,2" d="M629.5179,-249.7101C667.5271,-251.2757 723.6019,-253.5854 762.4024,-255.1836"/>
<polygon fill="#9a32cd" stroke="#9a32cd" points="629.4413,-246.2041 619.3057,-249.2895 629.1532,-253.1982 629.4413,-246.2041"/>
<text text-anchor="middle" x="686" y="-256" font-family="Helvetica,sans-Serif" font-size="10.00" fill="#000000"> targetPlayer</text>
</g>
<!-- Node18 -->
<g id="node17" class="node">
<title>Node18</title>
<g id="a_node17"><a xlink:href="class_m_v_1_1_timer.html" target="_top" xlink:title="MV.Timer">
<polygon fill="#ffffff" stroke="#000000" points="777,-162.5 777,-181.5 836,-181.5 836,-162.5 777,-162.5"/>
<text text-anchor="middle" x="806.5" y="-169.5" font-family="Helvetica,sans-Serif" font-size="10.00" fill="#000000">MV.Timer</text>
</a>
</g>
</g>
<!-- Node18&#45;&gt;Node13 -->
<g id="edge23" class="edge">
<title>Node18&#45;&gt;Node13</title>
<path fill="none" stroke="#9a32cd" stroke-dasharray="5,2" d="M846.3683,-173.1165C872.126,-175.1397 905.7894,-180.2854 933,-193 961.1154,-206.1374 986.9089,-232.9427 999.4715,-247.3418"/>
<polygon fill="#9a32cd" stroke="#9a32cd" points="846.4182,-169.6122 836.2095,-172.4464 845.9574,-176.5971 846.4182,-169.6122"/>
<text text-anchor="middle" x="905.5" y="-196" font-family="Helvetica,sans-Serif" font-size="10.00" fill="#000000"> gameTimer</text>
</g>
<!-- Node19 -->
<g id="node18" class="node">
<title>Node19</title>
<g id="a_node18"><a xlink:href="class_m_v_1_1_game_script_data.html" target="_top" xlink:title="Data for saving ">
<polygon fill="#ffffff" stroke="#000000" points="753,-124.5 753,-143.5 860,-143.5 860,-124.5 753,-124.5"/>
<text text-anchor="middle" x="806.5" y="-131.5" font-family="Helvetica,sans-Serif" font-size="10.00" fill="#000000">MV.GameScriptData</text>
</a>
</g>
</g>
<!-- Node19&#45;&gt;Node13 -->
<g id="edge25" class="edge">
<title>Node19&#45;&gt;Node13</title>
<path fill="none" stroke="#9a32cd" stroke-dasharray="5,2" d="M869.9922,-139.3622C891.2405,-143.344 914.2658,-150.2077 933,-162 967.7669,-183.8841 992.9675,-227.9454 1002.8705,-247.397"/>
<polygon fill="#9a32cd" stroke="#9a32cd" points="870.4987,-135.8983 860.0546,-137.6792 869.3297,-142.8 870.4987,-135.8983"/>
<text text-anchor="middle" x="905.5" y="-165" font-family="Helvetica,sans-Serif" font-size="10.00" fill="#000000"> data</text>
</g>
<!-- Node20 -->
<g id="node19" class="node">
<title>Node20</title>
<g id="a_node19"><a xlink:href="class_m_v_1_1_enemy_manager.html" target="_top" xlink:title="Class for scripted enemy spawn ">
<polygon fill="#ffffff" stroke="#000000" points="956,-.5 956,-19.5 1059,-19.5 1059,-.5 956,-.5"/>
<text text-anchor="middle" x="1007.5" y="-7.5" font-family="Helvetica,sans-Serif" font-size="10.00" fill="#000000">MV.EnemyManager</text>
</a>
</g>
</g>
<!-- Node20&#45;&gt;Node2 -->
<g id="edge26" class="edge">
<title>Node20&#45;&gt;Node2</title>
<path fill="none" stroke="#9a32cd" stroke-dasharray="5,2" d="M1069.3704,-3.0252C1089.6689,-4.0317 1110.874,-9.1072 1126,-23 1165.7872,-59.5433 1176.9354,-241.1738 1179.0765,-285.3187"/>
<polygon fill="#9a32cd" stroke="#9a32cd" points="1069.2553,.4773 1059.1935,-2.8406 1069.1283,-6.5215 1069.2553,.4773"/>
<text text-anchor="middle" x="1104" y="-26" font-family="Helvetica,sans-Serif" font-size="10.00" fill="#000000"> Enemy</text>
</g>
</g>
</svg>
        <g id="navigator" transform="translate(0 0)" fill="#404254">
                <rect fill="#f2f5e9" fill-opacity="0.5" stroke="#606060" stroke-width=".5" x="0" y="0" width="60" height="60"/>
                <use id="zoomplus" xlink:href="#zoomPlus" x="17" y="9" onmousedown="handleZoom(evt,'in')"/>
                <use id="zoomminus" xlink:href="#zoomMin" x="42" y="9" onmousedown="handleZoom(evt,'out')"/>
                <use id="reset" xlink:href="#resetDef" x="30" y="36" onmousedown="handleReset()"/>
                <g id="arrowUp" xlink:href="#dirArrow" transform="translate(30 24)" onmousedown="handlePan(0,-1)">
                  <use xlink:href="#rim" fill="#404040">
                        <set attributeName="fill" to="#808080" begin="arrowUp.mouseover" end="arrowUp.mouseout"/>
                  </use>
                  <path fill="none" stroke="white" stroke-width="1.5" d="M0,-3.0v7 M-2.5,-0.5L0,-3.0L2.5,-0.5"/>
                </g>
                <g id="arrowRight" xlink:href="#dirArrow" transform="rotate(90) translate(36 -43)" onmousedown="handlePan(1,0)">
                  <use xlink:href="#rim" fill="#404040">
                        <set attributeName="fill" to="#808080" begin="arrowRight.mouseover" end="arrowRight.mouseout"/>
                  </use>
                  <path fill="none" stroke="white" stroke-width="1.5" d="M0,-3.0v7 M-2.5,-0.5L0,-3.0L2.5,-0.5"/>
                </g>
                <g id="arrowDown" xlink:href="#dirArrow" transform="rotate(180) translate(-30 -48)" onmousedown="handlePan(0,1)">
                  <use xlink:href="#rim" fill="#404040">
                        <set attributeName="fill" to="#808080" begin="arrowDown.mouseover" end="arrowDown.mouseout"/>
                  </use>
                  <path fill="none" stroke="white" stroke-width="1.5" d="M0,-3.0v7 M-2.5,-0.5L0,-3.0L2.5,-0.5"/>
                </g>
                <g id="arrowLeft" xlink:href="#dirArrow" transform="rotate(270) translate(-36 17)" onmousedown="handlePan(-1,0)">
                  <use xlink:href="#rim" fill="#404040">
                        <set attributeName="fill" to="#808080" begin="arrowLeft.mouseover" end="arrowLeft.mouseout"/>
                  </use>
                  <path fill="none" stroke="white" stroke-width="1.5" d="M0,-3.0v7 M-2.5,-0.5L0,-3.0L2.5,-0.5"/>
                </g>
        </g>
        <svg viewBox="0 0 15 15" width="100%" height="30px" preserveAspectRatio="xMaxYMin meet">
         <g id="arrow_out" transform="scale(0.3 0.3)">
          <a xlink:href="class_m_v_1_1_m_v_main__coll__graph_org.svg" target="_base">
           <rect id="button" ry="5" rx="5" y="6" x="6" height="38" width="38"
                fill="#f2f5e9" fill-opacity="0.5" stroke="#606060" stroke-width="1.0"/>
           <path id="arrow"
             d="M 11.500037,31.436501 C 11.940474,20.09759 22.043105,11.32322 32.158766,21.979434 L 37.068811,17.246167 C 37.068811,17.246167 37.088388,32 37.088388,32 L 22.160133,31.978069 C 22.160133,31.978069 26.997745,27.140456 26.997745,27.140456 C 18.528582,18.264221 13.291696,25.230495 11.500037,31.436501 z"
             style="fill:#404040;"/>
          </a>
         </g>
        </svg>
</svg>
