<?xml version="1.0" encoding="UTF-8" standalone="no"?>
<!DOCTYPE svg PUBLIC "-//W3C//DTD SVG 1.1//EN"
 "http://www.w3.org/Graphics/SVG/1.1/DTD/svg11.dtd">
<!-- Generated by graphviz version 2.40.1 (20161225.0304)
 -->
<!-- Title: MV.MVUtility.Geq Pages: 1 -->
<svg width="554pt" height="66pt"
 viewBox="0.00 0.00 554.00 66.00" xmlns="http://www.w3.org/2000/svg" xmlns:xlink="http://www.w3.org/1999/xlink">
<g id="graph0" class="graph" transform="scale(1 1) rotate(0) translate(4 62)">
<title>MV.MVUtility.Geq</title>
<polygon fill="#ffffff" stroke="transparent" points="-4,4 -4,-62 550,-62 550,4 -4,4"/>
<!-- Node14 -->
<g id="node1" class="node">
<title>Node14</title>
<polygon fill="#bfbfbf" stroke="#000000" points="0,-19.5 0,-38.5 96,-38.5 96,-19.5 0,-19.5"/>
<text text-anchor="middle" x="48" y="-26.5" font-family="Helvetica,sans-Serif" font-size="10.00" fill="#000000">MV.MVUtility.Geq</text>
</g>
<!-- Node15 -->
<g id="node2" class="node">
<title>Node15</title>
<g id="a_node2"><a xlink:href="class_m_v_1_1_player.html#ab3cb10f0430ba1bd83c26e54daa72b42" target="_top" xlink:title="Get player position ">
<polygon fill="#ffffff" stroke="#000000" points="132,-19.5 132,-38.5 248,-38.5 248,-19.5 132,-19.5"/>
<text text-anchor="middle" x="190" y="-26.5" font-family="Helvetica,sans-Serif" font-size="10.00" fill="#000000">MV.Player.GetPosition</text>
</a>
</g>
</g>
<!-- Node14&#45;&gt;Node15 -->
<g id="edge1" class="edge">
<title>Node14&#45;&gt;Node15</title>
<path fill="none" stroke="#191970" d="M106.2441,-29C114.7106,-29 123.4273,-29 131.8911,-29"/>
<polygon fill="#191970" stroke="#191970" points="106.0748,-25.5001 96.0747,-29 106.0747,-32.5001 106.0748,-25.5001"/>
</g>
<!-- Node16 -->
<g id="node3" class="node">
<title>Node16</title>
<g id="a_node3"><a xlink:href="class_m_v_1_1_game_script.html#a2703ec551581054c2cd5b7426e81cfd8" target="_top" xlink:title="Load room referenced by MVMain.Room.activeroomData ">
<polygon fill="#ffffff" stroke="#000000" points="284,-38.5 284,-57.5 421,-57.5 421,-38.5 284,-38.5"/>
<text text-anchor="middle" x="352.5" y="-45.5" font-family="Helvetica,sans-Serif" font-size="10.00" fill="#000000">MV.GameScript.LoadRoom</text>
</a>
</g>
</g>
<!-- Node15&#45;&gt;Node16 -->
<g id="edge2" class="edge">
<title>Node15&#45;&gt;Node16</title>
<path fill="none" stroke="#191970" d="M258.3819,-36.9954C266.8213,-37.9822 275.4508,-38.9912 283.8936,-39.9783"/>
<polygon fill="#191970" stroke="#191970" points="258.5461,-33.4909 248.2072,-35.8058 257.7331,-40.4435 258.5461,-33.4909"/>
</g>
<!-- Node17 -->
<g id="node4" class="node">
<title>Node17</title>
<g id="a_node4"><a xlink:href="class_m_v_1_1_game_script.html#afd944b682ddbb94d2c307fae3308adde" target="_top" xlink:title="Called when player come into teleporter tiles ">
<polygon fill="#ffffff" stroke="#000000" points="290,-.5 290,-19.5 415,-19.5 415,-.5 290,-.5"/>
<text text-anchor="middle" x="352.5" y="-7.5" font-family="Helvetica,sans-Serif" font-size="10.00" fill="#000000">MV.GameScript.Teleport</text>
</a>
</g>
</g>
<!-- Node15&#45;&gt;Node17 -->
<g id="edge3" class="edge">
<title>Node15&#45;&gt;Node17</title>
<path fill="none" stroke="#191970" d="M258.463,-20.9951C268.8398,-19.7818 279.502,-18.5352 289.7495,-17.337"/>
<polygon fill="#191970" stroke="#191970" points="257.7331,-17.5565 248.2072,-22.1942 258.5461,-24.5091 257.7331,-17.5565"/>
</g>
<!-- Node18 -->
<g id="node5" class="node">
<title>Node18</title>
<g id="a_node5"><a xlink:href="class_m_v_1_1_player.html#adb3180f04b31a09f7aaf1df41782da59" target="_top" xlink:title="Method for removing player after dead, and forcing game over ">
<polygon fill="#ffffff" stroke="#000000" points="457,-.5 457,-19.5 546,-19.5 546,-.5 457,-.5"/>
<text text-anchor="middle" x="501.5" y="-7.5" font-family="Helvetica,sans-Serif" font-size="10.00" fill="#000000">MV.Player.Dead</text>
</a>
</g>
</g>
<!-- Node17&#45;&gt;Node18 -->
<g id="edge4" class="edge">
<title>Node17&#45;&gt;Node18</title>
<path fill="none" stroke="#191970" d="M425.4986,-10C436.2236,-10 446.9902,-10 456.9086,-10"/>
<polygon fill="#191970" stroke="#191970" points="425.2576,-6.5001 415.2576,-10 425.2575,-13.5001 425.2576,-6.5001"/>
</g>
</g>
</svg>
