<?xml version="1.0" encoding="UTF-8" standalone="no"?>
<!DOCTYPE svg PUBLIC "-//W3C//DTD SVG 1.1//EN"
 "http://www.w3.org/Graphics/SVG/1.1/DTD/svg11.dtd">
<!-- Generated by graphviz version 2.40.1 (20161225.0304)
 -->
<!-- Title: MV.MVUtility.Leq0 Pages: 1 -->
<svg width="569pt" height="161pt"
 viewBox="0.00 0.00 569.00 161.00" xmlns="http://www.w3.org/2000/svg" xmlns:xlink="http://www.w3.org/1999/xlink">
<g id="graph0" class="graph" transform="scale(1 1) rotate(0) translate(4 157)">
<title>MV.MVUtility.Leq0</title>
<polygon fill="#ffffff" stroke="transparent" points="-4,4 -4,-157 565,-157 565,4 -4,4"/>
<!-- Node21 -->
<g id="node1" class="node">
<title>Node21</title>
<polygon fill="#bfbfbf" stroke="#000000" points="0,-76.5 0,-95.5 99,-95.5 99,-76.5 0,-76.5"/>
<text text-anchor="middle" x="49.5" y="-83.5" font-family="Helvetica,sans-Serif" font-size="10.00" fill="#000000">MV.MVUtility.Leq0</text>
</g>
<!-- Node22 -->
<g id="node2" class="node">
<title>Node22</title>
<g id="a_node2"><a xlink:href="class_m_v_1_1_base_enemy_buff.html#a24d4e01360e1e1cf8a93b04a4e1d1381" target="_top" xlink:title="Tick for BaseEnemies, override BuffTick for buff effects ">
<polygon fill="#ffffff" stroke="#000000" points="135,-133.5 135,-152.5 263,-152.5 263,-133.5 135,-133.5"/>
<text text-anchor="middle" x="199" y="-140.5" font-family="Helvetica,sans-Serif" font-size="10.00" fill="#000000">MV.BaseEnemyBuff.Tick</text>
</a>
</g>
</g>
<!-- Node21&#45;&gt;Node22 -->
<g id="edge1" class="edge">
<title>Node21&#45;&gt;Node22</title>
<path fill="none" stroke="#191970" d="M78.3082,-99.9241C94.7099,-107.5668 115.7632,-116.9037 135,-124 144.243,-127.4097 154.4037,-130.6498 163.8538,-133.457"/>
<polygon fill="#191970" stroke="#191970" points="79.7756,-96.7464 69.2376,-95.6497 76.7916,-103.0786 79.7756,-96.7464"/>
</g>
<!-- Node23 -->
<g id="node3" class="node">
<title>Node23</title>
<g id="a_node3"><a xlink:href="class_m_v_1_1_base_player_buff.html#ac9ef2e8e5f7f4702cb83d80c8058d737" target="_top" xlink:title="Tick for Player, override BuffTick for buff effects ">
<polygon fill="#ffffff" stroke="#000000" points="136.5,-95.5 136.5,-114.5 261.5,-114.5 261.5,-95.5 136.5,-95.5"/>
<text text-anchor="middle" x="199" y="-102.5" font-family="Helvetica,sans-Serif" font-size="10.00" fill="#000000">MV.BasePlayerBuff.Tick</text>
</a>
</g>
</g>
<!-- Node21&#45;&gt;Node23 -->
<g id="edge2" class="edge">
<title>Node21&#45;&gt;Node23</title>
<path fill="none" stroke="#191970" d="M109.2211,-93.59C118.163,-94.7264 127.4042,-95.9009 136.4039,-97.0446"/>
<polygon fill="#191970" stroke="#191970" points="109.6428,-90.1155 99.2813,-92.3267 108.7602,-97.0596 109.6428,-90.1155"/>
</g>
<!-- Node24 -->
<g id="node4" class="node">
<title>Node24</title>
<g id="a_node4"><a xlink:href="class_m_v_1_1_player.html#a3817005a036c9ada462afcfc7cb77644" target="_top" xlink:title="Method for giving player damage ">
<polygon fill="#ffffff" stroke="#000000" points="152,-57.5 152,-76.5 246,-76.5 246,-57.5 152,-57.5"/>
<text text-anchor="middle" x="199" y="-64.5" font-family="Helvetica,sans-Serif" font-size="10.00" fill="#000000">MV.Player.GetHit</text>
</a>
</g>
</g>
<!-- Node21&#45;&gt;Node24 -->
<g id="edge3" class="edge">
<title>Node21&#45;&gt;Node24</title>
<path fill="none" stroke="#191970" d="M109.4272,-78.3838C123.5821,-76.5849 138.4759,-74.692 151.9665,-72.9775"/>
<polygon fill="#191970" stroke="#191970" points="108.7602,-74.9404 99.2813,-79.6733 109.6428,-81.8845 108.7602,-74.9404"/>
</g>
<!-- Node25 -->
<g id="node5" class="node">
<title>Node25</title>
<g id="a_node5"><a xlink:href="class_m_v_1_1_player.html#ab3cb10f0430ba1bd83c26e54daa72b42" target="_top" xlink:title="Get player position ">
<polygon fill="#ffffff" stroke="#000000" points="141,-19.5 141,-38.5 257,-38.5 257,-19.5 141,-19.5"/>
<text text-anchor="middle" x="199" y="-26.5" font-family="Helvetica,sans-Serif" font-size="10.00" fill="#000000">MV.Player.GetPosition</text>
</a>
</g>
</g>
<!-- Node21&#45;&gt;Node25 -->
<g id="edge4" class="edge">
<title>Node21&#45;&gt;Node25</title>
<path fill="none" stroke="#191970" d="M78.3082,-72.0759C94.7099,-64.4332 115.7632,-55.0963 135,-48 144.243,-44.5903 154.4037,-41.3502 163.8538,-38.543"/>
<polygon fill="#191970" stroke="#191970" points="76.7916,-68.9214 69.2376,-76.3503 79.7756,-75.2536 76.7916,-68.9214"/>
</g>
<!-- Node26 -->
<g id="node6" class="node">
<title>Node26</title>
<g id="a_node6"><a xlink:href="class_m_v_1_1_game_script.html#a2703ec551581054c2cd5b7426e81cfd8" target="_top" xlink:title="Load room referenced by MVMain.Room.activeroomData ">
<polygon fill="#ffffff" stroke="#000000" points="299,-38.5 299,-57.5 436,-57.5 436,-38.5 299,-38.5"/>
<text text-anchor="middle" x="367.5" y="-45.5" font-family="Helvetica,sans-Serif" font-size="10.00" fill="#000000">MV.GameScript.LoadRoom</text>
</a>
</g>
</g>
<!-- Node25&#45;&gt;Node26 -->
<g id="edge5" class="edge">
<title>Node25&#45;&gt;Node26</title>
<path fill="none" stroke="#191970" d="M267.5952,-36.7348C277.861,-37.8923 288.4481,-39.0861 298.7178,-40.2441"/>
<polygon fill="#191970" stroke="#191970" points="267.7895,-33.2346 257.4602,-35.592 267.0051,-40.1905 267.7895,-33.2346"/>
</g>
<!-- Node27 -->
<g id="node7" class="node">
<title>Node27</title>
<g id="a_node7"><a xlink:href="class_m_v_1_1_game_script.html#afd944b682ddbb94d2c307fae3308adde" target="_top" xlink:title="Called when player come into teleporter tiles ">
<polygon fill="#ffffff" stroke="#000000" points="305,-.5 305,-19.5 430,-19.5 430,-.5 305,-.5"/>
<text text-anchor="middle" x="367.5" y="-7.5" font-family="Helvetica,sans-Serif" font-size="10.00" fill="#000000">MV.GameScript.Teleport</text>
</a>
</g>
</g>
<!-- Node25&#45;&gt;Node27 -->
<g id="edge6" class="edge">
<title>Node25&#45;&gt;Node27</title>
<path fill="none" stroke="#191970" d="M267.6594,-21.258C279.9585,-19.8711 292.7169,-18.4325 304.8363,-17.0659"/>
<polygon fill="#191970" stroke="#191970" points="267.0051,-17.8095 257.4602,-22.408 267.7895,-24.7654 267.0051,-17.8095"/>
</g>
<!-- Node28 -->
<g id="node8" class="node">
<title>Node28</title>
<g id="a_node8"><a xlink:href="class_m_v_1_1_player.html#adb3180f04b31a09f7aaf1df41782da59" target="_top" xlink:title="Method for removing player after dead, and forcing game over ">
<polygon fill="#ffffff" stroke="#000000" points="472,-.5 472,-19.5 561,-19.5 561,-.5 472,-.5"/>
<text text-anchor="middle" x="516.5" y="-7.5" font-family="Helvetica,sans-Serif" font-size="10.00" fill="#000000">MV.Player.Dead</text>
</a>
</g>
</g>
<!-- Node27&#45;&gt;Node28 -->
<g id="edge7" class="edge">
<title>Node27&#45;&gt;Node28</title>
<path fill="none" stroke="#191970" d="M440.4986,-10C451.2236,-10 461.9902,-10 471.9086,-10"/>
<polygon fill="#191970" stroke="#191970" points="440.2576,-6.5001 430.2576,-10 440.2575,-13.5001 440.2576,-6.5001"/>
</g>
</g>
</svg>
