<?xml version="1.0" encoding="UTF-8" standalone="no"?>
<!DOCTYPE svg PUBLIC "-//W3C//DTD SVG 1.1//EN"
 "http://www.w3.org/Graphics/SVG/1.1/DTD/svg11.dtd">
<!-- Generated by graphviz version 2.40.1 (20161225.0304)
 -->
<!-- Title: MV.GameScript Pages: 1 -->
<svg width="505pt" height="276pt"
 viewBox="0.00 0.00 504.50 276.00" xmlns="http://www.w3.org/2000/svg" xmlns:xlink="http://www.w3.org/1999/xlink">
<g id="graph0" class="graph" transform="scale(1 1) rotate(0) translate(4 272)">
<title>MV.GameScript</title>
<polygon fill="#ffffff" stroke="transparent" points="-4,4 -4,-272 500.5,-272 500.5,4 -4,4"/>
<!-- Node2 -->
<g id="node1" class="node">
<title>Node2</title>
<polygon fill="#bfbfbf" stroke="#000000" points="184,-.5 184,-19.5 270,-19.5 270,-.5 184,-.5"/>
<text text-anchor="middle" x="227" y="-7.5" font-family="Helvetica,sans-Serif" font-size="10.00" fill="#000000">MV.GameScript</text>
</g>
<!-- Node3 -->
<g id="node2" class="node">
<title>Node3</title>
<polygon fill="#ffffff" stroke="#bfbfbf" points="0,-248.5 0,-267.5 84,-267.5 84,-248.5 0,-248.5"/>
<text text-anchor="middle" x="42" y="-255.5" font-family="Helvetica,sans-Serif" font-size="10.00" fill="#000000">MonoBehaviour</text>
</g>
<!-- Node3&#45;&gt;Node2 -->
<g id="edge1" class="edge">
<title>Node3&#45;&gt;Node2</title>
<path fill="none" stroke="#191970" d="M35.8594,-238.6896C32.907,-227.7493 30,-213.7421 30,-201 30,-201 30,-201 30,-77 30,-44.7582 125.7773,-24.9046 183.7675,-15.8387"/>
<polygon fill="#191970" stroke="#191970" points="32.5482,-239.8362 38.7209,-248.4471 39.2653,-237.8663 32.5482,-239.8362"/>
</g>
<!-- Node6 -->
<g id="node5" class="node">
<title>Node6</title>
<g id="a_node5"><a xlink:href="class_m_v_1_1_base_object.html" target="_top" xlink:title="Base class of nearly all physiscal objects ">
<polygon fill="#ffffff" stroke="#000000" points="58,-191.5 58,-210.5 126,-210.5 126,-191.5 58,-191.5"/>
<text text-anchor="middle" x="92" y="-198.5" font-family="Helvetica,sans-Serif" font-size="10.00" fill="#000000">BaseObject</text>
</a>
</g>
</g>
<!-- Node3&#45;&gt;Node6 -->
<g id="edge5" class="edge">
<title>Node3&#45;&gt;Node6</title>
<path fill="none" stroke="#191970" d="M57.2213,-240.6477C65.9043,-230.7491 76.4556,-218.7206 83.6434,-210.5265"/>
<polygon fill="#191970" stroke="#191970" points="54.4451,-238.5051 50.4818,-248.3307 59.7074,-243.1212 54.4451,-238.5051"/>
</g>
<!-- Node4 -->
<g id="node3" class="node">
<title>Node4</title>
<polygon fill="#ffffff" stroke="#bfbfbf" points="258,-67.5 258,-86.5 294,-86.5 294,-67.5 258,-67.5"/>
<text text-anchor="middle" x="276" y="-74.5" font-family="Helvetica,sans-Serif" font-size="10.00" fill="#000000">Text</text>
</g>
<!-- Node4&#45;&gt;Node2 -->
<g id="edge2" class="edge">
<title>Node4&#45;&gt;Node2</title>
<path fill="none" stroke="#9a32cd" stroke-dasharray="5,2" d="M262.8214,-58.9803C253.5469,-46.2989 241.4978,-29.8235 234.0075,-19.5817"/>
<polygon fill="#9a32cd" stroke="#9a32cd" points="260.2512,-61.3949 268.9795,-67.4005 265.9014,-57.2627 260.2512,-61.3949"/>
<text text-anchor="middle" x="277.5" y="-41" font-family="Helvetica,sans-Serif" font-size="10.00" fill="#000000"> scoreText</text>
</g>
<!-- Node5 -->
<g id="node4" class="node">
<title>Node5</title>
<g id="a_node4"><a xlink:href="class_m_v_1_1_base_enemy.html" target="_top" xlink:title="Base class for enemies ">
<polygon fill="#ffffff" stroke="#000000" points="58,-67.5 58,-86.5 146,-86.5 146,-67.5 58,-67.5"/>
<text text-anchor="middle" x="102" y="-74.5" font-family="Helvetica,sans-Serif" font-size="10.00" fill="#000000">MV.BaseEnemy</text>
</a>
</g>
</g>
<!-- Node5&#45;&gt;Node2 -->
<g id="edge3" class="edge">
<title>Node5&#45;&gt;Node2</title>
<path fill="none" stroke="#9a32cd" stroke-dasharray="5,2" d="M103.5348,-57.1299C105.0255,-50.2441 107.8214,-43.0052 113,-38 123.1846,-28.1565 155.9183,-20.7476 183.7116,-16.0315"/>
<polygon fill="#9a32cd" stroke="#9a32cd" points="100.0331,-56.8988 102.1118,-67.2877 106.9654,-57.87 100.0331,-56.8988"/>
<text text-anchor="middle" x="140.5" y="-41" font-family="Helvetica,sans-Serif" font-size="10.00" fill="#000000"> bossEnemy</text>
</g>
<!-- Node6&#45;&gt;Node5 -->
<g id="edge4" class="edge">
<title>Node6&#45;&gt;Node5</title>
<path fill="none" stroke="#191970" d="M93.4173,-181.0958C94.3832,-167.7653 95.7154,-149.826 97,-134 98.3502,-117.3659 100.0816,-98.0162 101.1124,-86.6788"/>
<polygon fill="#191970" stroke="#191970" points="89.8987,-181.23 92.6731,-191.4551 96.8807,-181.7317 89.8987,-181.23"/>
</g>
<!-- Node7 -->
<g id="node6" class="node">
<title>Node7</title>
<g id="a_node6"><a xlink:href="class_m_v_1_1_player.html" target="_top" xlink:title="Class for player ">
<polygon fill="#ffffff" stroke="#000000" points="106,-134.5 106,-153.5 168,-153.5 168,-134.5 106,-134.5"/>
<text text-anchor="middle" x="137" y="-141.5" font-family="Helvetica,sans-Serif" font-size="10.00" fill="#000000">MV.Player</text>
</a>
</g>
</g>
<!-- Node6&#45;&gt;Node7 -->
<g id="edge7" class="edge">
<title>Node6&#45;&gt;Node7</title>
<path fill="none" stroke="#191970" d="M105.9341,-183.3501C113.7035,-173.5089 123.0747,-161.6387 129.4791,-153.5265"/>
<polygon fill="#191970" stroke="#191970" points="103.083,-181.3131 99.6336,-191.3307 108.5772,-185.6506 103.083,-181.3131"/>
</g>
<!-- Node7&#45;&gt;Node2 -->
<g id="edge9" class="edge">
<title>Node7&#45;&gt;Node2</title>
<path fill="none" stroke="#9a32cd" stroke-dasharray="5,2" d="M157.5187,-127.6057C161.2848,-124.0284 164.9756,-120.083 168,-116 182.3194,-96.6681 179.4432,-88.0999 191,-67 200.3333,-49.9595 212.6995,-31.0515 220.2408,-19.863"/>
<polygon fill="#9a32cd" stroke="#9a32cd" points="155.0515,-125.115 149.8722,-134.3576 159.6849,-130.3621 155.0515,-125.115"/>
<text text-anchor="middle" x="220" y="-74.5" font-family="Helvetica,sans-Serif" font-size="10.00" fill="#000000"> playerPlayer</text>
</g>
<!-- Node7&#45;&gt;Node5 -->
<g id="edge6" class="edge">
<title>Node7&#45;&gt;Node5</title>
<path fill="none" stroke="#9a32cd" stroke-dasharray="5,2" d="M119.2857,-126.6677C116.5487,-123.3298 113.9789,-119.7107 112,-116 107.0662,-106.7486 104.481,-94.9491 103.186,-86.7637"/>
<polygon fill="#9a32cd" stroke="#9a32cd" points="116.8802,-129.2252 126.1926,-134.2778 122.0637,-124.5207 116.8802,-129.2252"/>
<text text-anchor="middle" x="140" y="-108" font-family="Helvetica,sans-Serif" font-size="10.00" fill="#000000"> targetPlayer</text>
</g>
<!-- Node8 -->
<g id="node7" class="node">
<title>Node8</title>
<g id="a_node7"><a xlink:href="class_m_v_1_1_timer.html" target="_top" xlink:title="MV.Timer">
<polygon fill="#ffffff" stroke="#000000" points="312.5,-67.5 312.5,-86.5 371.5,-86.5 371.5,-67.5 312.5,-67.5"/>
<text text-anchor="middle" x="342" y="-74.5" font-family="Helvetica,sans-Serif" font-size="10.00" fill="#000000">MV.Timer</text>
</a>
</g>
</g>
<!-- Node8&#45;&gt;Node2 -->
<g id="edge8" class="edge">
<title>Node8&#45;&gt;Node2</title>
<path fill="none" stroke="#9a32cd" stroke-dasharray="5,2" d="M328.3803,-59.31C321.9486,-51.9098 313.7638,-43.719 305,-38 292.7099,-29.9799 277.8307,-23.9057 264.3768,-19.5"/>
<polygon fill="#9a32cd" stroke="#9a32cd" points="326.0041,-61.9314 335.0551,-67.4387 331.4139,-57.4892 326.0041,-61.9314"/>
<text text-anchor="middle" x="343" y="-41" font-family="Helvetica,sans-Serif" font-size="10.00" fill="#000000"> gameTimer</text>
</g>
<!-- Node9 -->
<g id="node8" class="node">
<title>Node9</title>
<g id="a_node8"><a xlink:href="class_m_v_1_1_game_script_data.html" target="_top" xlink:title="Data for saving ">
<polygon fill="#ffffff" stroke="#000000" points="389.5,-67.5 389.5,-86.5 496.5,-86.5 496.5,-67.5 389.5,-67.5"/>
<text text-anchor="middle" x="443" y="-74.5" font-family="Helvetica,sans-Serif" font-size="10.00" fill="#000000">MV.GameScriptData</text>
</a>
</g>
</g>
<!-- Node9&#45;&gt;Node2 -->
<g id="edge10" class="edge">
<title>Node9&#45;&gt;Node2</title>
<path fill="none" stroke="#9a32cd" stroke-dasharray="5,2" d="M420.4139,-61.9812C407.1144,-53.7709 389.6769,-44.0667 373,-38 339.5292,-25.8241 299.7182,-18.6389 270.1288,-14.6019"/>
<polygon fill="#9a32cd" stroke="#9a32cd" points="418.5805,-64.963 428.8998,-67.3635 422.3298,-59.0517 418.5805,-64.963"/>
<text text-anchor="middle" x="408" y="-41" font-family="Helvetica,sans-Serif" font-size="10.00" fill="#000000"> data</text>
</g>
</g>
</svg>
