<?xml version="1.0" encoding="UTF-8" standalone="no"?>
<!DOCTYPE svg PUBLIC "-//W3C//DTD SVG 1.1//EN"
 "http://www.w3.org/Graphics/SVG/1.1/DTD/svg11.dtd">
<!-- Generated by graphviz version 2.40.1 (20161225.0304)
 -->
<!-- Title: MV.BaseObject Pages: 1 -->
<svg width="282pt" height="140pt"
 viewBox="0.00 0.00 282.00 140.00" xmlns="http://www.w3.org/2000/svg" xmlns:xlink="http://www.w3.org/1999/xlink">
<g id="graph0" class="graph" transform="scale(1 1) rotate(0) translate(4 136)">
<title>MV.BaseObject</title>
<polygon fill="#ffffff" stroke="transparent" points="-4,4 -4,-136 278,-136 278,4 -4,4"/>
<!-- Node0 -->
<g id="node1" class="node">
<title>Node0</title>
<polygon fill="#bfbfbf" stroke="#000000" points="107,-56.5 107,-75.5 193,-75.5 193,-56.5 107,-56.5"/>
<text text-anchor="middle" x="150" y="-63.5" font-family="Helvetica,sans-Serif" font-size="10.00" fill="#000000">MV.BaseObject</text>
</g>
<!-- Node2 -->
<g id="node3" class="node">
<title>Node2</title>
<g id="a_node3"><a xlink:href="class_m_v_1_1_base_enemy.html" target="_top" xlink:title="Base class for enemies ">
<polygon fill="#ffffff" stroke="#000000" points="0,-.5 0,-19.5 88,-19.5 88,-.5 0,-.5"/>
<text text-anchor="middle" x="44" y="-7.5" font-family="Helvetica,sans-Serif" font-size="10.00" fill="#000000">MV.BaseEnemy</text>
</a>
</g>
</g>
<!-- Node0&#45;&gt;Node2 -->
<g id="edge2" class="edge">
<title>Node0&#45;&gt;Node2</title>
<path fill="none" stroke="#191970" d="M122.4778,-51.46C103.5092,-41.4388 78.8273,-28.3993 62.2522,-19.6427"/>
<polygon fill="#191970" stroke="#191970" points="121.0593,-54.669 131.5362,-56.2455 124.3292,-48.4796 121.0593,-54.669"/>
</g>
<!-- Node3 -->
<g id="node4" class="node">
<title>Node3</title>
<g id="a_node4"><a xlink:href="class_m_v_1_1_base_pickup.html" target="_top" xlink:title="Base class for pickups ">
<polygon fill="#ffffff" stroke="#000000" points="106.5,-.5 106.5,-19.5 193.5,-19.5 193.5,-.5 106.5,-.5"/>
<text text-anchor="middle" x="150" y="-7.5" font-family="Helvetica,sans-Serif" font-size="10.00" fill="#000000">MV.BasePickup</text>
</a>
</g>
</g>
<!-- Node0&#45;&gt;Node3 -->
<g id="edge3" class="edge">
<title>Node0&#45;&gt;Node3</title>
<path fill="none" stroke="#191970" d="M150,-46.1575C150,-37.155 150,-26.9199 150,-19.6427"/>
<polygon fill="#191970" stroke="#191970" points="146.5001,-46.2455 150,-56.2455 153.5001,-46.2456 146.5001,-46.2455"/>
</g>
<!-- Node4 -->
<g id="node5" class="node">
<title>Node4</title>
<g id="a_node5"><a xlink:href="class_m_v_1_1_player.html" target="_top" xlink:title="Class for player ">
<polygon fill="#ffffff" stroke="#000000" points="212,-.5 212,-19.5 274,-19.5 274,-.5 212,-.5"/>
<text text-anchor="middle" x="243" y="-7.5" font-family="Helvetica,sans-Serif" font-size="10.00" fill="#000000">MV.Player</text>
</a>
</g>
</g>
<!-- Node0&#45;&gt;Node4 -->
<g id="edge4" class="edge">
<title>Node0&#45;&gt;Node4</title>
<path fill="none" stroke="#191970" d="M174.8335,-51.0465C191.3811,-41.0824 212.6432,-28.2794 226.9863,-19.6427"/>
<polygon fill="#191970" stroke="#191970" points="172.9607,-48.0886 166.1994,-56.2455 176.5717,-54.0854 172.9607,-48.0886"/>
</g>
<!-- Node1 -->
<g id="node2" class="node">
<title>Node1</title>
<polygon fill="#ffffff" stroke="#bfbfbf" points="108,-112.5 108,-131.5 192,-131.5 192,-112.5 108,-112.5"/>
<text text-anchor="middle" x="150" y="-119.5" font-family="Helvetica,sans-Serif" font-size="10.00" fill="#000000">MonoBehaviour</text>
</g>
<!-- Node1&#45;&gt;Node0 -->
<g id="edge1" class="edge">
<title>Node1&#45;&gt;Node0</title>
<path fill="none" stroke="#191970" d="M150,-102.1575C150,-93.155 150,-82.9199 150,-75.6427"/>
<polygon fill="#191970" stroke="#191970" points="146.5001,-102.2455 150,-112.2455 153.5001,-102.2456 146.5001,-102.2455"/>
</g>
</g>
</svg>
