<?xml version="1.0" encoding="UTF-8" standalone="no"?>
<!DOCTYPE svg PUBLIC "-//W3C//DTD SVG 1.1//EN"
 "http://www.w3.org/Graphics/SVG/1.1/DTD/svg11.dtd">
<!-- Generated by graphviz version 2.40.1 (20161225.0304)
 -->
<!-- Title: MV.BaseEnemyBuff Pages: 1 -->
<svg width="141pt" height="276pt"
 viewBox="0.00 0.00 141.00 276.00" xmlns="http://www.w3.org/2000/svg" xmlns:xlink="http://www.w3.org/1999/xlink">
<g id="graph0" class="graph" transform="scale(1 1) rotate(0) translate(4 272)">
<title>MV.BaseEnemyBuff</title>
<polygon fill="#ffffff" stroke="transparent" points="-4,4 -4,-272 137,-272 137,4 -4,4"/>
<!-- Node1 -->
<g id="node1" class="node">
<title>Node1</title>
<polygon fill="#bfbfbf" stroke="#000000" points="0,-.5 0,-19.5 106,-19.5 106,-.5 0,-.5"/>
<text text-anchor="middle" x="53" y="-7.5" font-family="Helvetica,sans-Serif" font-size="10.00" fill="#000000">MV.BaseEnemyBuff</text>
</g>
<!-- Node2 -->
<g id="node2" class="node">
<title>Node2</title>
<g id="a_node2"><a xlink:href="class_m_v_1_1_base_enemy.html" target="_top" xlink:title="Base class for enemies ">
<polygon fill="#ffffff" stroke="#000000" points="9,-67.5 9,-86.5 97,-86.5 97,-67.5 9,-67.5"/>
<text text-anchor="middle" x="53" y="-74.5" font-family="Helvetica,sans-Serif" font-size="10.00" fill="#000000">MV.BaseEnemy</text>
</a>
</g>
</g>
<!-- Node2&#45;&gt;Node1 -->
<g id="edge1" class="edge">
<title>Node2&#45;&gt;Node1</title>
<path fill="none" stroke="#9a32cd" stroke-dasharray="5,2" d="M53,-57.1079C53,-44.714 53,-29.3263 53,-19.5817"/>
<polygon fill="#9a32cd" stroke="#9a32cd" points="49.5001,-57.4005 53,-67.4005 56.5001,-57.4006 49.5001,-57.4005"/>
<text text-anchor="middle" x="64" y="-41" font-family="Helvetica,sans-Serif" font-size="10.00" fill="#000000"> host</text>
</g>
<!-- Node3 -->
<g id="node3" class="node">
<title>Node3</title>
<g id="a_node3"><a xlink:href="class_m_v_1_1_base_object.html" target="_top" xlink:title="Base class of nearly all physiscal objects ">
<polygon fill="#ffffff" stroke="#000000" points="15,-191.5 15,-210.5 83,-210.5 83,-191.5 15,-191.5"/>
<text text-anchor="middle" x="49" y="-198.5" font-family="Helvetica,sans-Serif" font-size="10.00" fill="#000000">BaseObject</text>
</a>
</g>
</g>
<!-- Node3&#45;&gt;Node2 -->
<g id="edge2" class="edge">
<title>Node3&#45;&gt;Node2</title>
<path fill="none" stroke="#191970" d="M49.6429,-181.0697C50.5138,-154.0713 52.0346,-106.9273 52.6876,-86.6849"/>
<polygon fill="#191970" stroke="#191970" points="46.1382,-181.1622 49.3139,-191.2699 53.1346,-181.388 46.1382,-181.1622"/>
</g>
<!-- Node5 -->
<g id="node5" class="node">
<title>Node5</title>
<g id="a_node5"><a xlink:href="class_m_v_1_1_player.html" target="_top" xlink:title="Class for player ">
<polygon fill="#ffffff" stroke="#000000" points="65,-134.5 65,-153.5 127,-153.5 127,-134.5 65,-134.5"/>
<text text-anchor="middle" x="96" y="-141.5" font-family="Helvetica,sans-Serif" font-size="10.00" fill="#000000">MV.Player</text>
</a>
</g>
</g>
<!-- Node3&#45;&gt;Node5 -->
<g id="edge5" class="edge">
<title>Node3&#45;&gt;Node5</title>
<path fill="none" stroke="#191970" d="M63.5534,-183.3501C71.6681,-173.5089 81.4558,-161.6387 88.1448,-153.5265"/>
<polygon fill="#191970" stroke="#191970" points="60.6344,-181.3887 56.9729,-191.3307 66.0352,-185.842 60.6344,-181.3887"/>
</g>
<!-- Node4 -->
<g id="node4" class="node">
<title>Node4</title>
<polygon fill="#ffffff" stroke="#bfbfbf" points="7,-248.5 7,-267.5 91,-267.5 91,-248.5 7,-248.5"/>
<text text-anchor="middle" x="49" y="-255.5" font-family="Helvetica,sans-Serif" font-size="10.00" fill="#000000">MonoBehaviour</text>
</g>
<!-- Node4&#45;&gt;Node3 -->
<g id="edge3" class="edge">
<title>Node4&#45;&gt;Node3</title>
<path fill="none" stroke="#191970" d="M49,-238.2342C49,-228.8491 49,-218.0651 49,-210.5265"/>
<polygon fill="#191970" stroke="#191970" points="45.5001,-238.3307 49,-248.3307 52.5001,-238.3308 45.5001,-238.3307"/>
</g>
<!-- Node5&#45;&gt;Node2 -->
<g id="edge4" class="edge">
<title>Node5&#45;&gt;Node2</title>
<path fill="none" stroke="#9a32cd" stroke-dasharray="5,2" d="M84.4351,-125.9803C76.2963,-113.2989 65.7225,-96.8235 59.1494,-86.5817"/>
<polygon fill="#9a32cd" stroke="#9a32cd" points="81.4923,-127.8751 89.8391,-134.4005 87.3834,-124.0942 81.4923,-127.8751"/>
<text text-anchor="middle" x="105" y="-108" font-family="Helvetica,sans-Serif" font-size="10.00" fill="#000000"> targetPlayer</text>
</g>
</g>
</svg>
