<?xml version="1.0" encoding="UTF-8" standalone="no"?>
<!DOCTYPE svg PUBLIC "-//W3C//DTD SVG 1.1//EN"
 "http://www.w3.org/Graphics/SVG/1.1/DTD/svg11.dtd">
<!-- Generated by graphviz version 2.40.1 (20161225.0304)
 -->
<!-- Title: MV.Player.HasWeapon Pages: 1 -->
<svg width="456pt" height="47pt"
 viewBox="0.00 0.00 456.00 47.00" xmlns="http://www.w3.org/2000/svg" xmlns:xlink="http://www.w3.org/1999/xlink">
<g id="graph0" class="graph" transform="scale(1 1) rotate(0) translate(4 43)">
<title>MV.Player.HasWeapon</title>
<polygon fill="#ffffff" stroke="transparent" points="-4,4 -4,-43 452,-43 452,4 -4,4"/>
<!-- Node12 -->
<g id="node1" class="node">
<title>Node12</title>
<polygon fill="#bfbfbf" stroke="#000000" points="0,-.5 0,-19.5 119,-19.5 119,-.5 0,-.5"/>
<text text-anchor="middle" x="59.5" y="-7.5" font-family="Helvetica,sans-Serif" font-size="10.00" fill="#000000">MV.Player.HasWeapon</text>
</g>
<!-- Node13 -->
<g id="node2" class="node">
<title>Node13</title>
<g id="a_node2"><a xlink:href="class_m_v_1_1_player.html#a801dccfaef762848ff8d2b7ab5422708" target="_top" xlink:title="Get player&#39;s weapon data ">
<polygon fill="#ffffff" stroke="#000000" points="155,-19.5 155,-38.5 272,-38.5 272,-19.5 155,-19.5"/>
<text text-anchor="middle" x="213.5" y="-26.5" font-family="Helvetica,sans-Serif" font-size="10.00" fill="#000000">MV.Player.GetWeapon</text>
</a>
</g>
</g>
<!-- Node12&#45;&gt;Node13 -->
<g id="edge1" class="edge">
<title>Node12&#45;&gt;Node13</title>
<path fill="none" stroke="#191970" d="M129.0771,-18.5842C137.6982,-19.6478 146.4446,-20.7269 154.8785,-21.7675"/>
<polygon fill="#191970" stroke="#191970" points="129.3938,-15.0968 119.0404,-17.3459 128.5366,-22.0441 129.3938,-15.0968"/>
</g>
<!-- Node14 -->
<g id="node3" class="node">
<title>Node14</title>
<g id="a_node3"><a xlink:href="class_m_v_1_1_player.html#ac7734413c89f2b9ed90a7b966ed41889" target="_top" xlink:title="Get the level of given weapon ">
<polygon fill="#ffffff" stroke="#000000" points="308,-.5 308,-19.5 448,-19.5 448,-.5 308,-.5"/>
<text text-anchor="middle" x="378" y="-7.5" font-family="Helvetica,sans-Serif" font-size="10.00" fill="#000000">MV.Player.GetWeaponLevel</text>
</a>
</g>
</g>
<!-- Node12&#45;&gt;Node14 -->
<g id="edge3" class="edge">
<title>Node12&#45;&gt;Node14</title>
<path fill="none" stroke="#191970" d="M129.3608,-10C182.3557,-10 254.885,-10 307.931,-10"/>
<polygon fill="#191970" stroke="#191970" points="129.0338,-6.5001 119.0338,-10 129.0338,-13.5001 129.0338,-6.5001"/>
</g>
<!-- Node13&#45;&gt;Node14 -->
<g id="edge2" class="edge">
<title>Node13&#45;&gt;Node14</title>
<path fill="none" stroke="#191970" d="M282.5594,-21.0235C290.9658,-20.0526 299.5608,-19.0598 307.981,-18.0873"/>
<polygon fill="#191970" stroke="#191970" points="281.956,-17.5699 272.4236,-22.1942 282.7592,-24.5236 281.956,-17.5699"/>
</g>
</g>
</svg>
