<?xml version="1.0" encoding="UTF-8" standalone="no"?>
<!DOCTYPE svg PUBLIC "-//W3C//DTD SVG 1.1//EN"
 "http://www.w3.org/Graphics/SVG/1.1/DTD/svg11.dtd">
<!-- Generated by graphviz version 2.40.1 (20161225.0304)
 -->
<!-- Title: MV.MVUtility.TilePosToLocalChunkPos Pages: 1 -->
<svg width="774pt" height="66pt"
 viewBox="0.00 0.00 774.00 66.00" xmlns="http://www.w3.org/2000/svg" xmlns:xlink="http://www.w3.org/1999/xlink">
<g id="graph0" class="graph" transform="scale(1 1) rotate(0) translate(4 62)">
<title>MV.MVUtility.TilePosToLocalChunkPos</title>
<polygon fill="#ffffff" stroke="transparent" points="-4,4 -4,-62 770,-62 770,4 -4,4"/>
<!-- Node35 -->
<g id="node1" class="node">
<title>Node35</title>
<polygon fill="#bfbfbf" stroke="#000000" points="0,-14 0,-44 146,-44 146,-14 0,-14"/>
<text text-anchor="start" x="8" y="-32" font-family="Helvetica,sans-Serif" font-size="10.00" fill="#000000">MV.MVUtility.TilePosToLocal</text>
<text text-anchor="middle" x="73" y="-21" font-family="Helvetica,sans-Serif" font-size="10.00" fill="#000000">ChunkPos</text>
</g>
<!-- Node36 -->
<g id="node2" class="node">
<title>Node36</title>
<g id="a_node2"><a xlink:href="class_m_v_1_1_room_data.html#a24fa3b7392d22a44d5bd9932f208b0e7" target="_top" xlink:title="Recalculate RoomData ">
<polygon fill="#ffffff" stroke="#000000" points="196,-38.5 196,-57.5 354,-57.5 354,-38.5 196,-38.5"/>
<text text-anchor="middle" x="275" y="-45.5" font-family="Helvetica,sans-Serif" font-size="10.00" fill="#000000">MV.RoomData.RecalculateData</text>
</a>
</g>
</g>
<!-- Node35&#45;&gt;Node36 -->
<g id="edge1" class="edge">
<title>Node35&#45;&gt;Node36</title>
<path fill="none" stroke="#191970" d="M156.5495,-36.8586C169.5672,-38.0831 182.9837,-39.345 195.8985,-40.5598"/>
<polygon fill="#191970" stroke="#191970" points="156.4961,-33.3382 146.2122,-35.8863 155.8405,-40.3075 156.4961,-33.3382"/>
</g>
<!-- Node37 -->
<g id="node3" class="node">
<title>Node37</title>
<g id="a_node3"><a xlink:href="class_m_v_1_1_room_manager.html#ac6502b5912bc031a28d2ab220a25c311" target="_top" xlink:title="Get local chunk position based from tile position ">
<polygon fill="#ffffff" stroke="#000000" points="182,-.5 182,-19.5 368,-19.5 368,-.5 182,-.5"/>
<text text-anchor="middle" x="275" y="-7.5" font-family="Helvetica,sans-Serif" font-size="10.00" fill="#000000">MV.RoomManager.GetLocalChunkPos</text>
</a>
</g>
</g>
<!-- Node35&#45;&gt;Node37 -->
<g id="edge2" class="edge">
<title>Node35&#45;&gt;Node37</title>
<path fill="none" stroke="#191970" d="M156.3143,-21.1635C164.6772,-20.3769 173.2071,-19.5746 181.6648,-18.779"/>
<polygon fill="#191970" stroke="#191970" points="155.8405,-17.6925 146.2122,-22.1137 156.4961,-24.6618 155.8405,-17.6925"/>
</g>
<!-- Node38 -->
<g id="node4" class="node">
<title>Node38</title>
<g id="a_node4"><a xlink:href="class_m_v_1_1_game_script.html#a607f2ccb10ed89b27d73b0c1809ca23f" target="_top" xlink:title="get chunk position in room from 3D position ">
<polygon fill="#ffffff" stroke="#000000" points="404,-.5 404,-19.5 578,-19.5 578,-.5 404,-.5"/>
<text text-anchor="middle" x="491" y="-7.5" font-family="Helvetica,sans-Serif" font-size="10.00" fill="#000000">MV.GameScript.GetLocalChunkPos</text>
</a>
</g>
</g>
<!-- Node37&#45;&gt;Node38 -->
<g id="edge3" class="edge">
<title>Node37&#45;&gt;Node38</title>
<path fill="none" stroke="#191970" d="M378.2347,-10C386.8348,-10 395.4752,-10 403.9373,-10"/>
<polygon fill="#191970" stroke="#191970" points="378.1707,-6.5001 368.1707,-10 378.1706,-13.5001 378.1707,-6.5001"/>
</g>
<!-- Node39 -->
<g id="node5" class="node">
<title>Node39</title>
<g id="a_node5"><a xlink:href="class_m_v_1_1_base_enemy.html#af8593bde67bb1e0b92bde5cfb270f204" target="_top" xlink:title="Do custom event when died, need set useCustomDeath = true Need to destroy GameObject manually with th...">
<polygon fill="#ffffff" stroke="#000000" points="614,-.5 614,-19.5 766,-19.5 766,-.5 614,-.5"/>
<text text-anchor="middle" x="690" y="-7.5" font-family="Helvetica,sans-Serif" font-size="10.00" fill="#000000">MV.BaseEnemy.CustomDeath</text>
</a>
</g>
</g>
<!-- Node38&#45;&gt;Node39 -->
<g id="edge4" class="edge">
<title>Node38&#45;&gt;Node39</title>
<path fill="none" stroke="#191970" d="M588.5597,-10C597.0047,-10 605.4684,-10 613.7072,-10"/>
<polygon fill="#191970" stroke="#191970" points="588.2843,-6.5001 578.2843,-10 588.2843,-13.5001 588.2843,-6.5001"/>
</g>
</g>
</svg>
