<?xml version="1.0" encoding="UTF-8" standalone="no"?>
<!DOCTYPE svg PUBLIC "-//W3C//DTD SVG 1.1//EN"
 "http://www.w3.org/Graphics/SVG/1.1/DTD/svg11.dtd">
<!-- Generated by graphviz version 2.40.1 (20161225.0304)
 -->
<!-- Title: MV.BaseEnemy Pages: 1 -->
<svg width="134pt" height="209pt"
 viewBox="0.00 0.00 134.00 209.00" xmlns="http://www.w3.org/2000/svg" xmlns:xlink="http://www.w3.org/1999/xlink">
<g id="graph0" class="graph" transform="scale(1 1) rotate(0) translate(4 205)">
<title>MV.BaseEnemy</title>
<polygon fill="#ffffff" stroke="transparent" points="-4,4 -4,-205 130,-205 130,4 -4,4"/>
<!-- Node3 -->
<g id="node1" class="node">
<title>Node3</title>
<polygon fill="#bfbfbf" stroke="#000000" points="2,-.5 2,-19.5 90,-19.5 90,-.5 2,-.5"/>
<text text-anchor="middle" x="46" y="-7.5" font-family="Helvetica,sans-Serif" font-size="10.00" fill="#000000">MV.BaseEnemy</text>
</g>
<!-- Node4 -->
<g id="node2" class="node">
<title>Node4</title>
<g id="a_node2"><a xlink:href="class_m_v_1_1_base_object.html" target="_top" xlink:title="Base class of nearly all physiscal objects ">
<polygon fill="#ffffff" stroke="#000000" points="8,-124.5 8,-143.5 76,-143.5 76,-124.5 8,-124.5"/>
<text text-anchor="middle" x="42" y="-131.5" font-family="Helvetica,sans-Serif" font-size="10.00" fill="#000000">BaseObject</text>
</a>
</g>
</g>
<!-- Node4&#45;&gt;Node3 -->
<g id="edge1" class="edge">
<title>Node4&#45;&gt;Node3</title>
<path fill="none" stroke="#191970" d="M42.6429,-114.0697C43.5138,-87.0713 45.0346,-39.9273 45.6876,-19.6849"/>
<polygon fill="#191970" stroke="#191970" points="39.1382,-114.1622 42.3139,-124.2699 46.1346,-114.388 39.1382,-114.1622"/>
</g>
<!-- Node6 -->
<g id="node4" class="node">
<title>Node6</title>
<g id="a_node4"><a xlink:href="class_m_v_1_1_player.html" target="_top" xlink:title="Class for player ">
<polygon fill="#ffffff" stroke="#000000" points="58,-67.5 58,-86.5 120,-86.5 120,-67.5 58,-67.5"/>
<text text-anchor="middle" x="89" y="-74.5" font-family="Helvetica,sans-Serif" font-size="10.00" fill="#000000">MV.Player</text>
</a>
</g>
</g>
<!-- Node4&#45;&gt;Node6 -->
<g id="edge4" class="edge">
<title>Node4&#45;&gt;Node6</title>
<path fill="none" stroke="#191970" d="M56.5534,-116.3501C64.6681,-106.5089 74.4558,-94.6387 81.1448,-86.5265"/>
<polygon fill="#191970" stroke="#191970" points="53.6344,-114.3887 49.9729,-124.3307 59.0352,-118.842 53.6344,-114.3887"/>
</g>
<!-- Node5 -->
<g id="node3" class="node">
<title>Node5</title>
<polygon fill="#ffffff" stroke="#bfbfbf" points="0,-181.5 0,-200.5 84,-200.5 84,-181.5 0,-181.5"/>
<text text-anchor="middle" x="42" y="-188.5" font-family="Helvetica,sans-Serif" font-size="10.00" fill="#000000">MonoBehaviour</text>
</g>
<!-- Node5&#45;&gt;Node4 -->
<g id="edge2" class="edge">
<title>Node5&#45;&gt;Node4</title>
<path fill="none" stroke="#191970" d="M42,-171.2342C42,-161.8491 42,-151.0651 42,-143.5265"/>
<polygon fill="#191970" stroke="#191970" points="38.5001,-171.3307 42,-181.3307 45.5001,-171.3308 38.5001,-171.3307"/>
</g>
<!-- Node6&#45;&gt;Node3 -->
<g id="edge3" class="edge">
<title>Node6&#45;&gt;Node3</title>
<path fill="none" stroke="#9a32cd" stroke-dasharray="5,2" d="M77.4351,-58.9803C69.2963,-46.2989 58.7225,-29.8235 52.1494,-19.5817"/>
<polygon fill="#9a32cd" stroke="#9a32cd" points="74.4923,-60.8751 82.8391,-67.4005 80.3834,-57.0942 74.4923,-60.8751"/>
<text text-anchor="middle" x="98" y="-41" font-family="Helvetica,sans-Serif" font-size="10.00" fill="#000000"> targetPlayer</text>
</g>
</g>
</svg>
