<?xml version="1.0" encoding="UTF-8" standalone="no"?>
<!DOCTYPE svg PUBLIC "-//W3C//DTD SVG 1.1//EN"
 "http://www.w3.org/Graphics/SVG/1.1/DTD/svg11.dtd">
<!-- Generated by graphviz version 2.40.1 (20161225.0304)
 -->
<!-- Title: MV.MVUtility.Rotation Pages: 1 -->
<svg width="291pt" height="66pt"
 viewBox="0.00 0.00 291.00 66.00" xmlns="http://www.w3.org/2000/svg" xmlns:xlink="http://www.w3.org/1999/xlink">
<g id="graph0" class="graph" transform="scale(1 1) rotate(0) translate(4 62)">
<title>MV.MVUtility.Rotation</title>
<polygon fill="#ffffff" stroke="transparent" points="-4,4 -4,-62 287,-62 287,4 -4,4"/>
<!-- Node32 -->
<g id="node1" class="node">
<title>Node32</title>
<polygon fill="#bfbfbf" stroke="#000000" points="0,-19.5 0,-38.5 115,-38.5 115,-19.5 0,-19.5"/>
<text text-anchor="middle" x="57.5" y="-26.5" font-family="Helvetica,sans-Serif" font-size="10.00" fill="#000000">MV.MVUtility.Rotation</text>
</g>
<!-- Node33 -->
<g id="node2" class="node">
<title>Node33</title>
<g id="a_node2"><a xlink:href="class_m_v_1_1_m_v_utility.html#a9a060dbed3ed6ddce59049debbc58237" target="_top" xlink:title="Rotate aVec by aDegree counter clockwise ">
<polygon fill="#ffffff" stroke="#000000" points="151,-38.5 151,-57.5 283,-57.5 283,-38.5 151,-38.5"/>
<text text-anchor="middle" x="217" y="-45.5" font-family="Helvetica,sans-Serif" font-size="10.00" fill="#000000">MV.MVUtility.RotateCCW</text>
</a>
</g>
</g>
<!-- Node32&#45;&gt;Node33 -->
<g id="edge1" class="edge">
<title>Node32&#45;&gt;Node33</title>
<path fill="none" stroke="#191970" d="M125.2867,-37.0749C133.7481,-38.0828 142.3934,-39.1127 150.8298,-40.1177"/>
<polygon fill="#191970" stroke="#191970" points="125.427,-33.567 115.0832,-35.8594 124.5989,-40.5178 125.427,-33.567"/>
</g>
<!-- Node34 -->
<g id="node3" class="node">
<title>Node34</title>
<g id="a_node3"><a xlink:href="class_m_v_1_1_m_v_utility.html#af9acb2732c3ea941e26d7fd07152fa88" target="_top" xlink:title="Rotate aVec by aDegree clockwise ">
<polygon fill="#ffffff" stroke="#000000" points="154.5,-.5 154.5,-19.5 279.5,-19.5 279.5,-.5 154.5,-.5"/>
<text text-anchor="middle" x="217" y="-7.5" font-family="Helvetica,sans-Serif" font-size="10.00" fill="#000000">MV.MVUtility.RotateCW</text>
</a>
</g>
</g>
<!-- Node32&#45;&gt;Node34 -->
<g id="edge2" class="edge">
<title>Node32&#45;&gt;Node34</title>
<path fill="none" stroke="#191970" d="M125.0914,-20.9484C134.8049,-19.7913 144.7647,-18.6048 154.3763,-17.4599"/>
<polygon fill="#191970" stroke="#191970" points="124.5989,-17.4822 115.0832,-22.1406 125.427,-24.433 124.5989,-17.4822"/>
</g>
</g>
</svg>
