<?xml version="1.0" encoding="UTF-8" standalone="no"?>
<!DOCTYPE svg PUBLIC "-//W3C//DTD SVG 1.1//EN"
 "http://www.w3.org/Graphics/SVG/1.1/DTD/svg11.dtd">
<!-- Generated by graphviz version 2.40.1 (20161225.0304)
 -->
<!-- Title: MV.RoomManager.LoadRoomData Pages: 1 -->
<svg width="483pt" height="66pt"
 viewBox="0.00 0.00 483.00 66.00" xmlns="http://www.w3.org/2000/svg" xmlns:xlink="http://www.w3.org/1999/xlink">
<g id="graph0" class="graph" transform="scale(1 1) rotate(0) translate(4 62)">
<title>MV.RoomManager.LoadRoomData</title>
<polygon fill="#ffffff" stroke="transparent" points="-4,4 -4,-62 479,-62 479,4 -4,4"/>
<!-- Node3 -->
<g id="node1" class="node">
<title>Node3</title>
<polygon fill="#bfbfbf" stroke="#000000" points="0,-19.5 0,-38.5 170,-38.5 170,-19.5 0,-19.5"/>
<text text-anchor="middle" x="85" y="-26.5" font-family="Helvetica,sans-Serif" font-size="10.00" fill="#000000">MV.RoomManager.LoadRoomData</text>
</g>
<!-- Node4 -->
<g id="node2" class="node">
<title>Node4</title>
<g id="a_node2"><a xlink:href="class_m_v_1_1_game_script.html#afd944b682ddbb94d2c307fae3308adde" target="_top" xlink:title="Called when player come into teleporter tiles ">
<polygon fill="#ffffff" stroke="#000000" points="215.5,-38.5 215.5,-57.5 340.5,-57.5 340.5,-38.5 215.5,-38.5"/>
<text text-anchor="middle" x="278" y="-45.5" font-family="Helvetica,sans-Serif" font-size="10.00" fill="#000000">MV.GameScript.Teleport</text>
</a>
</g>
</g>
<!-- Node3&#45;&gt;Node4 -->
<g id="edge1" class="edge">
<title>Node3&#45;&gt;Node4</title>
<path fill="none" stroke="#191970" d="M180.1928,-38.3713C192.0981,-39.5433 204.03,-40.718 215.2634,-41.8239"/>
<polygon fill="#191970" stroke="#191970" points="180.5092,-34.8856 170.2144,-37.389 179.8234,-41.852 180.5092,-34.8856"/>
</g>
<!-- Node6 -->
<g id="node4" class="node">
<title>Node6</title>
<g id="a_node4"><a xlink:href="class_m_v_1_1_game_script.html#afdfcc2375096321de9f9414d5855d5df" target="_top" xlink:title="Save data to persistentPath ">
<polygon fill="#ffffff" stroke="#000000" points="206,-.5 206,-19.5 350,-19.5 350,-.5 206,-.5"/>
<text text-anchor="middle" x="278" y="-7.5" font-family="Helvetica,sans-Serif" font-size="10.00" fill="#000000">MV.GameScript.SaveAllData</text>
</a>
</g>
</g>
<!-- Node3&#45;&gt;Node6 -->
<g id="edge3" class="edge">
<title>Node3&#45;&gt;Node6</title>
<path fill="none" stroke="#191970" d="M180.307,-19.6174C188.9235,-18.7692 197.5526,-17.9197 205.9195,-17.096"/>
<polygon fill="#191970" stroke="#191970" points="179.8234,-16.148 170.2144,-20.611 180.5092,-23.1144 179.8234,-16.148"/>
</g>
<!-- Node5 -->
<g id="node3" class="node">
<title>Node5</title>
<g id="a_node3"><a xlink:href="class_m_v_1_1_player.html#adb3180f04b31a09f7aaf1df41782da59" target="_top" xlink:title="Method for removing player after dead, and forcing game over ">
<polygon fill="#ffffff" stroke="#000000" points="386,-38.5 386,-57.5 475,-57.5 475,-38.5 386,-38.5"/>
<text text-anchor="middle" x="430.5" y="-45.5" font-family="Helvetica,sans-Serif" font-size="10.00" fill="#000000">MV.Player.Dead</text>
</a>
</g>
</g>
<!-- Node4&#45;&gt;Node5 -->
<g id="edge2" class="edge">
<title>Node4&#45;&gt;Node5</title>
<path fill="none" stroke="#191970" d="M351.2512,-48C363.0819,-48 375.009,-48 385.8909,-48"/>
<polygon fill="#191970" stroke="#191970" points="350.9081,-44.5001 340.908,-48 350.908,-51.5001 350.9081,-44.5001"/>
</g>
</g>
</svg>
