<?xml version="1.0" encoding="UTF-8" standalone="no"?>
<!DOCTYPE svg PUBLIC "-//W3C//DTD SVG 1.1//EN"
 "http://www.w3.org/Graphics/SVG/1.1/DTD/svg11.dtd">
<!-- Generated by graphviz version 2.40.1 (20161225.0304)
 -->
<!-- Title: MV.WorldManager.RevealChunk Pages: 1 -->
<svg width="466pt" height="66pt"
 viewBox="0.00 0.00 466.00 66.00" xmlns="http://www.w3.org/2000/svg" xmlns:xlink="http://www.w3.org/1999/xlink">
<g id="graph0" class="graph" transform="scale(1 1) rotate(0) translate(4 62)">
<title>MV.WorldManager.RevealChunk</title>
<polygon fill="#ffffff" stroke="transparent" points="-4,4 -4,-62 462,-62 462,4 -4,4"/>
<!-- Node2 -->
<g id="node1" class="node">
<title>Node2</title>
<polygon fill="#bfbfbf" stroke="#000000" points="0,-19.5 0,-38.5 160,-38.5 160,-19.5 0,-19.5"/>
<text text-anchor="middle" x="80" y="-26.5" font-family="Helvetica,sans-Serif" font-size="10.00" fill="#000000">MV.WorldManager.RevealChunk</text>
</g>
<!-- Node3 -->
<g id="node2" class="node">
<title>Node3</title>
<g id="a_node2"><a xlink:href="class_m_v_1_1_game_script.html#a2703ec551581054c2cd5b7426e81cfd8" target="_top" xlink:title="Load room referenced by MVMain.Room.activeroomData ">
<polygon fill="#ffffff" stroke="#000000" points="196,-38.5 196,-57.5 333,-57.5 333,-38.5 196,-38.5"/>
<text text-anchor="middle" x="264.5" y="-45.5" font-family="Helvetica,sans-Serif" font-size="10.00" fill="#000000">MV.GameScript.LoadRoom</text>
</a>
</g>
</g>
<!-- Node2&#45;&gt;Node3 -->
<g id="edge1" class="edge">
<title>Node2&#45;&gt;Node3</title>
<path fill="none" stroke="#191970" d="M170.1768,-38.2865C178.7687,-39.1713 187.3847,-40.0586 195.7263,-40.9176"/>
<polygon fill="#191970" stroke="#191970" points="170.4254,-34.7937 160.1195,-37.2508 169.7083,-41.7569 170.4254,-34.7937"/>
</g>
<!-- Node4 -->
<g id="node3" class="node">
<title>Node4</title>
<g id="a_node3"><a xlink:href="class_m_v_1_1_game_script.html#afd944b682ddbb94d2c307fae3308adde" target="_top" xlink:title="Called when player come into teleporter tiles ">
<polygon fill="#ffffff" stroke="#000000" points="202,-.5 202,-19.5 327,-19.5 327,-.5 202,-.5"/>
<text text-anchor="middle" x="264.5" y="-7.5" font-family="Helvetica,sans-Serif" font-size="10.00" fill="#000000">MV.GameScript.Teleport</text>
</a>
</g>
</g>
<!-- Node2&#45;&gt;Node4 -->
<g id="edge2" class="edge">
<title>Node2&#45;&gt;Node4</title>
<path fill="none" stroke="#191970" d="M170.3421,-19.6965C181.035,-18.5953 191.762,-17.4906 201.9482,-16.4416"/>
<polygon fill="#191970" stroke="#191970" points="169.7083,-16.2431 160.1195,-20.7492 170.4254,-23.2063 169.7083,-16.2431"/>
</g>
<!-- Node5 -->
<g id="node4" class="node">
<title>Node5</title>
<g id="a_node4"><a xlink:href="class_m_v_1_1_player.html#adb3180f04b31a09f7aaf1df41782da59" target="_top" xlink:title="Method for removing player after dead, and forcing game over ">
<polygon fill="#ffffff" stroke="#000000" points="369,-.5 369,-19.5 458,-19.5 458,-.5 369,-.5"/>
<text text-anchor="middle" x="413.5" y="-7.5" font-family="Helvetica,sans-Serif" font-size="10.00" fill="#000000">MV.Player.Dead</text>
</a>
</g>
</g>
<!-- Node4&#45;&gt;Node5 -->
<g id="edge3" class="edge">
<title>Node4&#45;&gt;Node5</title>
<path fill="none" stroke="#191970" d="M337.4986,-10C348.2236,-10 358.9902,-10 368.9086,-10"/>
<polygon fill="#191970" stroke="#191970" points="337.2576,-6.5001 327.2576,-10 337.2575,-13.5001 337.2576,-6.5001"/>
</g>
</g>
</svg>
