<?xml version="1.0" encoding="UTF-8" standalone="no"?>
<!DOCTYPE svg PUBLIC "-//W3C//DTD SVG 1.1//EN"
 "http://www.w3.org/Graphics/SVG/1.1/DTD/svg11.dtd">
<!-- Generated by graphviz version 2.40.1 (20161225.0304)
 -->
<!-- Title: MV.RoomManager Pages: 1 -->
<svg width="198pt" height="152pt"
 viewBox="0.00 0.00 198.00 152.00" xmlns="http://www.w3.org/2000/svg" xmlns:xlink="http://www.w3.org/1999/xlink">
<g id="graph0" class="graph" transform="scale(1 1) rotate(0) translate(4 148)">
<title>MV.RoomManager</title>
<polygon fill="#ffffff" stroke="transparent" points="-4,4 -4,-148 194,-148 194,4 -4,4"/>
<!-- Node2 -->
<g id="node1" class="node">
<title>Node2</title>
<polygon fill="#bfbfbf" stroke="#000000" points="26,-.5 26,-19.5 124,-19.5 124,-.5 26,-.5"/>
<text text-anchor="middle" x="75" y="-7.5" font-family="Helvetica,sans-Serif" font-size="10.00" fill="#000000">MV.RoomManager</text>
</g>
<!-- Node3 -->
<g id="node2" class="node">
<title>Node3</title>
<polygon fill="#ffffff" stroke="#bfbfbf" points="0,-67.5 0,-86.5 84,-86.5 84,-67.5 0,-67.5"/>
<text text-anchor="middle" x="42" y="-74.5" font-family="Helvetica,sans-Serif" font-size="10.00" fill="#000000">MonoBehaviour</text>
</g>
<!-- Node3&#45;&gt;Node2 -->
<g id="edge1" class="edge">
<title>Node3&#45;&gt;Node2</title>
<path fill="none" stroke="#191970" d="M51.2413,-58.2374C57.4354,-45.6614 65.3341,-29.6246 70.2807,-19.5817"/>
<polygon fill="#191970" stroke="#191970" points="48.0068,-56.8831 46.7281,-67.4005 54.2865,-59.9761 48.0068,-56.8831"/>
</g>
<!-- Node4 -->
<g id="node3" class="node">
<title>Node4</title>
<g id="a_node3"><a xlink:href="class_m_v_1_1_room_data.html" target="_top" xlink:title="Data for each room ">
<polygon fill="#ffffff" stroke="#000000" points="102,-67.5 102,-86.5 184,-86.5 184,-67.5 102,-67.5"/>
<text text-anchor="middle" x="143" y="-74.5" font-family="Helvetica,sans-Serif" font-size="10.00" fill="#000000">MV.RoomData</text>
</a>
</g>
</g>
<!-- Node4&#45;&gt;Node2 -->
<g id="edge2" class="edge">
<title>Node4&#45;&gt;Node2</title>
<path fill="none" stroke="#9a32cd" stroke-dasharray="5,2" d="M125.826,-60.0785C112.8201,-47.2639 95.4221,-30.1218 84.7247,-19.5817"/>
<polygon fill="#9a32cd" stroke="#9a32cd" points="123.6775,-62.8752 133.2573,-67.4005 128.5905,-57.8889 123.6775,-62.8752"/>
<text text-anchor="middle" x="151.5" y="-41" font-family="Helvetica,sans-Serif" font-size="10.00" fill="#000000"> activeRoomData</text>
</g>
<!-- Node5 -->
<g id="node4" class="node">
<title>Node5</title>
<polygon fill="#ffffff" stroke="#bfbfbf" points="98.5,-124.5 98.5,-143.5 187.5,-143.5 187.5,-124.5 98.5,-124.5"/>
<text text-anchor="middle" x="143" y="-131.5" font-family="Helvetica,sans-Serif" font-size="10.00" fill="#000000">ScriptableObject</text>
</g>
<!-- Node5&#45;&gt;Node4 -->
<g id="edge3" class="edge">
<title>Node5&#45;&gt;Node4</title>
<path fill="none" stroke="#191970" d="M143,-114.2342C143,-104.8491 143,-94.0651 143,-86.5265"/>
<polygon fill="#191970" stroke="#191970" points="139.5001,-114.3307 143,-124.3307 146.5001,-114.3308 139.5001,-114.3307"/>
</g>
</g>
</svg>
