<?xml version="1.0" encoding="UTF-8" standalone="no"?>
<!DOCTYPE svg PUBLIC "-//W3C//DTD SVG 1.1//EN"
 "http://www.w3.org/Graphics/SVG/1.1/DTD/svg11.dtd">
<!-- Generated by graphviz version 2.40.1 (20161225.0304)
 -->
<!-- Title: MV.BasePlayerBuff Pages: 1 -->
<svg width="111pt" height="209pt"
 viewBox="0.00 0.00 111.00 209.00" xmlns="http://www.w3.org/2000/svg" xmlns:xlink="http://www.w3.org/1999/xlink">
<g id="graph0" class="graph" transform="scale(1 1) rotate(0) translate(4 205)">
<title>MV.BasePlayerBuff</title>
<polygon fill="#ffffff" stroke="transparent" points="-4,4 -4,-205 107,-205 107,4 -4,4"/>
<!-- Node1 -->
<g id="node1" class="node">
<title>Node1</title>
<polygon fill="#bfbfbf" stroke="#000000" points="0,-.5 0,-19.5 103,-19.5 103,-.5 0,-.5"/>
<text text-anchor="middle" x="51.5" y="-7.5" font-family="Helvetica,sans-Serif" font-size="10.00" fill="#000000">MV.BasePlayerBuff</text>
</g>
<!-- Node2 -->
<g id="node2" class="node">
<title>Node2</title>
<g id="a_node2"><a xlink:href="class_m_v_1_1_player.html" target="_top" xlink:title="Class for player ">
<polygon fill="#ffffff" stroke="#000000" points="20.5,-67.5 20.5,-86.5 82.5,-86.5 82.5,-67.5 20.5,-67.5"/>
<text text-anchor="middle" x="51.5" y="-74.5" font-family="Helvetica,sans-Serif" font-size="10.00" fill="#000000">MV.Player</text>
</a>
</g>
</g>
<!-- Node2&#45;&gt;Node1 -->
<g id="edge1" class="edge">
<title>Node2&#45;&gt;Node1</title>
<path fill="none" stroke="#9a32cd" stroke-dasharray="5,2" d="M51.5,-57.1079C51.5,-44.714 51.5,-29.3263 51.5,-19.5817"/>
<polygon fill="#9a32cd" stroke="#9a32cd" points="48.0001,-57.4005 51.5,-67.4005 55.0001,-57.4006 48.0001,-57.4005"/>
<text text-anchor="middle" x="62.5" y="-41" font-family="Helvetica,sans-Serif" font-size="10.00" fill="#000000"> host</text>
</g>
<!-- Node3 -->
<g id="node3" class="node">
<title>Node3</title>
<g id="a_node3"><a xlink:href="class_m_v_1_1_base_object.html" target="_top" xlink:title="Base class of nearly all physiscal objects ">
<polygon fill="#ffffff" stroke="#000000" points="17.5,-124.5 17.5,-143.5 85.5,-143.5 85.5,-124.5 17.5,-124.5"/>
<text text-anchor="middle" x="51.5" y="-131.5" font-family="Helvetica,sans-Serif" font-size="10.00" fill="#000000">BaseObject</text>
</a>
</g>
</g>
<!-- Node3&#45;&gt;Node2 -->
<g id="edge2" class="edge">
<title>Node3&#45;&gt;Node2</title>
<path fill="none" stroke="#191970" d="M51.5,-114.2342C51.5,-104.8491 51.5,-94.0651 51.5,-86.5265"/>
<polygon fill="#191970" stroke="#191970" points="48.0001,-114.3307 51.5,-124.3307 55.0001,-114.3308 48.0001,-114.3307"/>
</g>
<!-- Node4 -->
<g id="node4" class="node">
<title>Node4</title>
<polygon fill="#ffffff" stroke="#bfbfbf" points="9.5,-181.5 9.5,-200.5 93.5,-200.5 93.5,-181.5 9.5,-181.5"/>
<text text-anchor="middle" x="51.5" y="-188.5" font-family="Helvetica,sans-Serif" font-size="10.00" fill="#000000">MonoBehaviour</text>
</g>
<!-- Node4&#45;&gt;Node3 -->
<g id="edge3" class="edge">
<title>Node4&#45;&gt;Node3</title>
<path fill="none" stroke="#191970" d="M51.5,-171.2342C51.5,-161.8491 51.5,-151.0651 51.5,-143.5265"/>
<polygon fill="#191970" stroke="#191970" points="48.0001,-171.3307 51.5,-181.3307 55.0001,-171.3308 48.0001,-171.3307"/>
</g>
</g>
</svg>
