<?xml version="1.0" encoding="UTF-8" standalone="no"?>
<!DOCTYPE svg PUBLIC "-//W3C//DTD SVG 1.1//EN"
 "http://www.w3.org/Graphics/SVG/1.1/DTD/svg11.dtd">
<!-- Generated by graphviz version 2.40.1 (20161225.0304)
 -->
<!-- Title: MV.BaseWeapon.SetDefault Pages: 1 -->
<svg width="510pt" height="28pt"
 viewBox="0.00 0.00 510.00 28.00" xmlns="http://www.w3.org/2000/svg" xmlns:xlink="http://www.w3.org/1999/xlink">
<g id="graph0" class="graph" transform="scale(1 1) rotate(0) translate(4 24)">
<title>MV.BaseWeapon.SetDefault</title>
<polygon fill="#ffffff" stroke="transparent" points="-4,4 -4,-24 506,-24 506,4 -4,4"/>
<!-- Node10 -->
<g id="node1" class="node">
<title>Node10</title>
<polygon fill="#bfbfbf" stroke="#000000" points="0,-.5 0,-19.5 143,-19.5 143,-.5 0,-.5"/>
<text text-anchor="middle" x="71.5" y="-7.5" font-family="Helvetica,sans-Serif" font-size="10.00" fill="#000000">MV.BaseWeapon.SetDefault</text>
</g>
<!-- Node11 -->
<g id="node2" class="node">
<title>Node11</title>
<g id="a_node2"><a xlink:href="class_m_v_1_1_m_v_utility.html#ac725ad84e0a1c99608c3a73e25cdedb2" target="_top" xlink:title="Create new weapon ">
<polygon fill="#ffffff" stroke="#000000" points="179,-.5 179,-19.5 322,-19.5 322,-.5 179,-.5"/>
<text text-anchor="middle" x="250.5" y="-7.5" font-family="Helvetica,sans-Serif" font-size="10.00" fill="#000000">MV.MVUtility.CreateWeapon</text>
</a>
</g>
</g>
<!-- Node10&#45;&gt;Node11 -->
<g id="edge1" class="edge">
<title>Node10&#45;&gt;Node11</title>
<path fill="none" stroke="#191970" d="M153.0428,-10C161.6381,-10 170.3321,-10 178.8042,-10"/>
<polygon fill="#191970" stroke="#191970" points="153.0173,-6.5001 143.0172,-10 153.0172,-13.5001 153.0173,-6.5001"/>
</g>
<!-- Node12 -->
<g id="node3" class="node">
<title>Node12</title>
<g id="a_node3"><a xlink:href="class_m_v_1_1_game_script.html#afdfcc2375096321de9f9414d5855d5df" target="_top" xlink:title="Save data to persistentPath ">
<polygon fill="#ffffff" stroke="#000000" points="358,-.5 358,-19.5 502,-19.5 502,-.5 358,-.5"/>
<text text-anchor="middle" x="430" y="-7.5" font-family="Helvetica,sans-Serif" font-size="10.00" fill="#000000">MV.GameScript.SaveAllData</text>
</a>
</g>
</g>
<!-- Node11&#45;&gt;Node12 -->
<g id="edge2" class="edge">
<title>Node11&#45;&gt;Node12</title>
<path fill="none" stroke="#191970" d="M332.4658,-10C340.9224,-10 349.4718,-10 357.8108,-10"/>
<polygon fill="#191970" stroke="#191970" points="332.217,-6.5001 322.217,-10 332.217,-13.5001 332.217,-6.5001"/>
</g>
</g>
</svg>
