<?xml version="1.0" encoding="UTF-8" standalone="no"?>
<!DOCTYPE svg PUBLIC "-//W3C//DTD SVG 1.1//EN"
 "http://www.w3.org/Graphics/SVG/1.1/DTD/svg11.dtd">
<!-- Generated by graphviz version 2.40.1 (20161225.0304)
 -->
<!-- Title: MV.BasePlayerBuff.SetDefault Pages: 1 -->
<svg width="484pt" height="28pt"
 viewBox="0.00 0.00 484.00 28.00" xmlns="http://www.w3.org/2000/svg" xmlns:xlink="http://www.w3.org/1999/xlink">
<g id="graph0" class="graph" transform="scale(1 1) rotate(0) translate(4 24)">
<title>MV.BasePlayerBuff.SetDefault</title>
<polygon fill="#ffffff" stroke="transparent" points="-4,4 -4,-24 480,-24 480,4 -4,4"/>
<!-- Node2 -->
<g id="node1" class="node">
<title>Node2</title>
<polygon fill="#bfbfbf" stroke="#000000" points="0,-.5 0,-19.5 152,-19.5 152,-.5 0,-.5"/>
<text text-anchor="middle" x="76" y="-7.5" font-family="Helvetica,sans-Serif" font-size="10.00" fill="#000000">MV.BasePlayerBuff.SetDefault</text>
</g>
<!-- Node3 -->
<g id="node2" class="node">
<title>Node3</title>
<g id="a_node2"><a xlink:href="class_m_v_1_1_m_v_utility.html#a7c43e07e159ff75fe6bfb33f143d44c9" target="_top" xlink:title="Create new buff for player ">
<polygon fill="#ffffff" stroke="#000000" points="188,-.5 188,-19.5 341,-19.5 341,-.5 188,-.5"/>
<text text-anchor="middle" x="264.5" y="-7.5" font-family="Helvetica,sans-Serif" font-size="10.00" fill="#000000">MV.MVUtility.CreatePlayerBuff</text>
</a>
</g>
</g>
<!-- Node2&#45;&gt;Node3 -->
<g id="edge1" class="edge">
<title>Node2&#45;&gt;Node3</title>
<path fill="none" stroke="#191970" d="M162.3961,-10C170.865,-10 179.419,-10 187.7821,-10"/>
<polygon fill="#191970" stroke="#191970" points="162.1269,-6.5001 152.1268,-10 162.1268,-13.5001 162.1269,-6.5001"/>
</g>
<!-- Node4 -->
<g id="node3" class="node">
<title>Node4</title>
<g id="a_node3"><a xlink:href="class_m_v_1_1_player.html#acad89d5f136738734826b6607e7f53c8" target="_top" xlink:title="Method for giving player buff ">
<polygon fill="#ffffff" stroke="#000000" points="377,-.5 377,-19.5 476,-19.5 476,-.5 377,-.5"/>
<text text-anchor="middle" x="426.5" y="-7.5" font-family="Helvetica,sans-Serif" font-size="10.00" fill="#000000">MV.Player.GetBuff</text>
</a>
</g>
</g>
<!-- Node3&#45;&gt;Node4 -->
<g id="edge2" class="edge">
<title>Node3&#45;&gt;Node4</title>
<path fill="none" stroke="#191970" d="M351.4488,-10C360.1382,-10 368.7357,-10 376.8386,-10"/>
<polygon fill="#191970" stroke="#191970" points="351.2303,-6.5001 341.2303,-10 351.2302,-13.5001 351.2303,-6.5001"/>
</g>
</g>
</svg>
