<?xml version="1.0" encoding="UTF-8" standalone="no"?>
<!DOCTYPE svg PUBLIC "-//W3C//DTD SVG 1.1//EN"
 "http://www.w3.org/Graphics/SVG/1.1/DTD/svg11.dtd">
<!-- Generated by graphviz version 2.40.1 (20161225.0304)
 -->
<!-- Title: Graphical Class Hierarchy Pages: 1 -->
<svg width="379pt" height="332pt"
 viewBox="0.00 0.00 379.00 332.00" xmlns="http://www.w3.org/2000/svg" xmlns:xlink="http://www.w3.org/1999/xlink">
<g id="graph0" class="graph" transform="scale(1 1) rotate(0) translate(4 328)">
<title>Graphical Class Hierarchy</title>
<polygon fill="#ffffff" stroke="transparent" points="-4,4 -4,-328 375,-328 375,4 -4,4"/>
<!-- Node12 -->
<g id="node1" class="node">
<title>Node12</title>
<polygon fill="#ffffff" stroke="#bfbfbf" points="0,-152.5 0,-171.5 84,-171.5 84,-152.5 0,-152.5"/>
<text text-anchor="middle" x="42" y="-159.5" font-family="Helvetica,sans-Serif" font-size="10.00" fill="#000000">MonoBehaviour</text>
</g>
<!-- Node0 -->
<g id="node2" class="node">
<title>Node0</title>
<g id="a_node2"><a xlink:href="class_cinemachine_pixel_perfect.html" target="_top" xlink:title="Add this component to a camera that has PixelPerfectCamera and CinemachineBrain components to prevent...">
<polygon fill="#ffffff" stroke="#000000" points="120,-304.5 120,-323.5 247,-323.5 247,-304.5 120,-304.5"/>
<text text-anchor="middle" x="183.5" y="-311.5" font-family="Helvetica,sans-Serif" font-size="10.00" fill="#000000">CinemachinePixelPerfect</text>
</a>
</g>
</g>
<!-- Node12&#45;&gt;Node0 -->
<g id="edge1" class="edge">
<title>Node12&#45;&gt;Node0</title>
<path fill="none" stroke="#191970" d="M48.2163,-181.4801C58.4793,-210.5189 81.7266,-264.9533 120,-295 124.9782,-298.9081 130.7483,-302.014 136.7404,-304.4819"/>
<polygon fill="#191970" stroke="#191970" points="51.4288,-180.0533 44.9144,-171.6979 44.7965,-182.2921 51.4288,-180.0533"/>
</g>
<!-- Node14 -->
<g id="node3" class="node">
<title>Node14</title>
<g id="a_node3"><a xlink:href="class_m_v_1_1_base_object.html" target="_top" xlink:title="Base class of nearly all physiscal objects ">
<polygon fill="#ffffff" stroke="#000000" points="140.5,-266.5 140.5,-285.5 226.5,-285.5 226.5,-266.5 140.5,-266.5"/>
<text text-anchor="middle" x="183.5" y="-273.5" font-family="Helvetica,sans-Serif" font-size="10.00" fill="#000000">MV.BaseObject</text>
</a>
</g>
</g>
<!-- Node12&#45;&gt;Node14 -->
<g id="edge2" class="edge">
<title>Node12&#45;&gt;Node14</title>
<path fill="none" stroke="#191970" d="M52.4752,-180.4981C65.569,-201.9787 89.9551,-237.0117 120,-257 126.1317,-261.0793 133.1662,-264.3064 140.269,-266.8525"/>
<polygon fill="#191970" stroke="#191970" points="55.3709,-178.5182 47.2741,-171.6851 49.3424,-182.0761 55.3709,-178.5182"/>
</g>
<!-- Node18 -->
<g id="node7" class="node">
<title>Node18</title>
<g id="a_node7"><a xlink:href="class_m_v_1_1_base_projectile.html" target="_top" xlink:title="Base class for Projectiles, has lightweight pysics calculation and use circle bounds ...">
<polygon fill="#ffffff" stroke="#000000" points="134.5,-228.5 134.5,-247.5 232.5,-247.5 232.5,-228.5 134.5,-228.5"/>
<text text-anchor="middle" x="183.5" y="-235.5" font-family="Helvetica,sans-Serif" font-size="10.00" fill="#000000">MV.BaseProjectile</text>
</a>
</g>
</g>
<!-- Node12&#45;&gt;Node18 -->
<g id="edge6" class="edge">
<title>Node12&#45;&gt;Node18</title>
<path fill="none" stroke="#191970" d="M60.59,-178.4206C75.6939,-191.0336 98.0245,-208.0875 120,-219 127.5237,-222.7361 135.92,-225.8864 144.0794,-228.4813"/>
<polygon fill="#191970" stroke="#191970" points="62.4666,-175.4206 52.5895,-171.5875 57.9205,-180.7435 62.4666,-175.4206"/>
</g>
<!-- Node19 -->
<g id="node8" class="node">
<title>Node19</title>
<g id="a_node8"><a xlink:href="class_m_v_1_1_game_script.html" target="_top" xlink:title="Core for MV functionality ">
<polygon fill="#ffffff" stroke="#000000" points="140.5,-190.5 140.5,-209.5 226.5,-209.5 226.5,-190.5 140.5,-190.5"/>
<text text-anchor="middle" x="183.5" y="-197.5" font-family="Helvetica,sans-Serif" font-size="10.00" fill="#000000">MV.GameScript</text>
</a>
</g>
</g>
<!-- Node12&#45;&gt;Node19 -->
<g id="edge7" class="edge">
<title>Node12&#45;&gt;Node19</title>
<path fill="none" stroke="#191970" d="M87.601,-174.2462C107.105,-179.484 129.5404,-185.5091 147.805,-190.4141"/>
<polygon fill="#191970" stroke="#191970" points="88.272,-170.8025 77.7064,-171.589 86.4564,-177.5629 88.272,-170.8025"/>
</g>
<!-- Node20 -->
<g id="node9" class="node">
<title>Node20</title>
<g id="a_node9"><a xlink:href="class_m_v_1_1_music_manager.html" target="_top" xlink:title="Class for playing background music ">
<polygon fill="#ffffff" stroke="#000000" points="134.5,-152.5 134.5,-171.5 232.5,-171.5 232.5,-152.5 134.5,-152.5"/>
<text text-anchor="middle" x="183.5" y="-159.5" font-family="Helvetica,sans-Serif" font-size="10.00" fill="#000000">MV.MusicManager</text>
</a>
</g>
</g>
<!-- Node12&#45;&gt;Node20 -->
<g id="edge8" class="edge">
<title>Node12&#45;&gt;Node20</title>
<path fill="none" stroke="#191970" d="M94.3419,-162C107.4367,-162 121.4357,-162 134.3685,-162"/>
<polygon fill="#191970" stroke="#191970" points="94.0716,-158.5001 84.0716,-162 94.0715,-165.5001 94.0716,-158.5001"/>
</g>
<!-- Node21 -->
<g id="node10" class="node">
<title>Node21</title>
<g id="a_node10"><a xlink:href="class_m_v_1_1_m_v_main.html" target="_top" xlink:title="MV.MVMain">
<polygon fill="#ffffff" stroke="#000000" points="148,-114.5 148,-133.5 219,-133.5 219,-114.5 148,-114.5"/>
<text text-anchor="middle" x="183.5" y="-121.5" font-family="Helvetica,sans-Serif" font-size="10.00" fill="#000000">MV.MVMain</text>
</a>
</g>
</g>
<!-- Node12&#45;&gt;Node21 -->
<g id="edge9" class="edge">
<title>Node12&#45;&gt;Node21</title>
<path fill="none" stroke="#191970" d="M87.601,-149.7538C107.105,-144.516 129.5404,-138.4909 147.805,-133.5859"/>
<polygon fill="#191970" stroke="#191970" points="86.4564,-146.4371 77.7064,-152.411 88.272,-153.1975 86.4564,-146.4371"/>
</g>
<!-- Node22 -->
<g id="node11" class="node">
<title>Node22</title>
<g id="a_node11"><a xlink:href="class_m_v_1_1_room_manager.html" target="_top" xlink:title="Class for managing active and available rooms ">
<polygon fill="#ffffff" stroke="#000000" points="134.5,-76.5 134.5,-95.5 232.5,-95.5 232.5,-76.5 134.5,-76.5"/>
<text text-anchor="middle" x="183.5" y="-83.5" font-family="Helvetica,sans-Serif" font-size="10.00" fill="#000000">MV.RoomManager</text>
</a>
</g>
</g>
<!-- Node12&#45;&gt;Node22 -->
<g id="edge10" class="edge">
<title>Node12&#45;&gt;Node22</title>
<path fill="none" stroke="#191970" d="M60.59,-145.5794C75.6939,-132.9664 98.0245,-115.9125 120,-105 127.5237,-101.2639 135.92,-98.1136 144.0794,-95.5187"/>
<polygon fill="#191970" stroke="#191970" points="57.9205,-143.2565 52.5895,-152.4125 62.4666,-148.5794 57.9205,-143.2565"/>
</g>
<!-- Node23 -->
<g id="node12" class="node">
<title>Node23</title>
<g id="a_node12"><a xlink:href="class_m_v_1_1_sound_manager.html" target="_top" xlink:title="Class for playing sounds ">
<polygon fill="#ffffff" stroke="#000000" points="133.5,-38.5 133.5,-57.5 233.5,-57.5 233.5,-38.5 133.5,-38.5"/>
<text text-anchor="middle" x="183.5" y="-45.5" font-family="Helvetica,sans-Serif" font-size="10.00" fill="#000000">MV.SoundManager</text>
</a>
</g>
</g>
<!-- Node12&#45;&gt;Node23 -->
<g id="edge11" class="edge">
<title>Node12&#45;&gt;Node23</title>
<path fill="none" stroke="#191970" d="M52.4752,-143.5019C65.569,-122.0213 89.9551,-86.9883 120,-67 125.8442,-63.1119 132.5087,-59.998 139.2707,-57.51"/>
<polygon fill="#191970" stroke="#191970" points="49.3424,-141.9239 47.2741,-152.3149 55.3709,-145.4818 49.3424,-141.9239"/>
</g>
<!-- Node24 -->
<g id="node13" class="node">
<title>Node24</title>
<g id="a_node13"><a xlink:href="class_m_v_1_1_world_manager.html" target="_top" xlink:title="Class for all world data ">
<polygon fill="#ffffff" stroke="#000000" points="134.5,-.5 134.5,-19.5 232.5,-19.5 232.5,-.5 134.5,-.5"/>
<text text-anchor="middle" x="183.5" y="-7.5" font-family="Helvetica,sans-Serif" font-size="10.00" fill="#000000">MV.WorldManager</text>
</a>
</g>
</g>
<!-- Node12&#45;&gt;Node24 -->
<g id="edge12" class="edge">
<title>Node12&#45;&gt;Node24</title>
<path fill="none" stroke="#191970" d="M48.2163,-142.5199C58.4793,-113.4811 81.7266,-59.0467 120,-29 124.9782,-25.0919 130.7483,-21.986 136.7404,-19.5181"/>
<polygon fill="#191970" stroke="#191970" points="44.7965,-141.7079 44.9144,-152.3021 51.4288,-143.9467 44.7965,-141.7079"/>
</g>
<!-- Node15 -->
<g id="node4" class="node">
<title>Node15</title>
<g id="a_node4"><a xlink:href="class_m_v_1_1_base_enemy.html" target="_top" xlink:title="Base class for enemies ">
<polygon fill="#ffffff" stroke="#000000" points="283,-304.5 283,-323.5 371,-323.5 371,-304.5 283,-304.5"/>
<text text-anchor="middle" x="327" y="-311.5" font-family="Helvetica,sans-Serif" font-size="10.00" fill="#000000">MV.BaseEnemy</text>
</a>
</g>
</g>
<!-- Node14&#45;&gt;Node15 -->
<g id="edge3" class="edge">
<title>Node14&#45;&gt;Node15</title>
<path fill="none" stroke="#191970" d="M229.4735,-288.1742C249.3164,-293.4287 272.1928,-299.4866 290.8005,-304.4141"/>
<polygon fill="#191970" stroke="#191970" points="230.2739,-284.7655 219.7111,-285.589 228.4819,-291.5323 230.2739,-284.7655"/>
</g>
<!-- Node16 -->
<g id="node5" class="node">
<title>Node16</title>
<g id="a_node5"><a xlink:href="class_m_v_1_1_base_pickup.html" target="_top" xlink:title="Base class for pickups ">
<polygon fill="#ffffff" stroke="#000000" points="283.5,-266.5 283.5,-285.5 370.5,-285.5 370.5,-266.5 283.5,-266.5"/>
<text text-anchor="middle" x="327" y="-273.5" font-family="Helvetica,sans-Serif" font-size="10.00" fill="#000000">MV.BasePickup</text>
</a>
</g>
</g>
<!-- Node14&#45;&gt;Node16 -->
<g id="edge4" class="edge">
<title>Node14&#45;&gt;Node16</title>
<path fill="none" stroke="#191970" d="M236.9447,-276C252.2828,-276 268.8169,-276 283.4797,-276"/>
<polygon fill="#191970" stroke="#191970" points="236.5548,-272.5001 226.5547,-276 236.5547,-279.5001 236.5548,-272.5001"/>
</g>
<!-- Node17 -->
<g id="node6" class="node">
<title>Node17</title>
<g id="a_node6"><a xlink:href="class_m_v_1_1_player.html" target="_top" xlink:title="Class for player ">
<polygon fill="#ffffff" stroke="#000000" points="296,-228.5 296,-247.5 358,-247.5 358,-228.5 296,-228.5"/>
<text text-anchor="middle" x="327" y="-235.5" font-family="Helvetica,sans-Serif" font-size="10.00" fill="#000000">MV.Player</text>
</a>
</g>
</g>
<!-- Node14&#45;&gt;Node17 -->
<g id="edge5" class="edge">
<title>Node14&#45;&gt;Node17</title>
<path fill="none" stroke="#191970" d="M229.6562,-263.7775C251.229,-258.0648 276.3542,-251.4114 295.6746,-246.2952"/>
<polygon fill="#191970" stroke="#191970" points="228.4819,-260.4677 219.7111,-266.411 230.2739,-267.2345 228.4819,-260.4677"/>
</g>
</g>
</svg>
