<?xml version="1.0" encoding="UTF-8" standalone="no"?>
<!DOCTYPE svg PUBLIC "-//W3C//DTD SVG 1.1//EN"
 "http://www.w3.org/Graphics/SVG/1.1/DTD/svg11.dtd">
<!-- Generated by graphviz version 2.40.1 (20161225.0304)
 -->
<!-- Title: Graphical Class Hierarchy Pages: 1 -->
<svg width="219pt" height="142pt"
 viewBox="0.00 0.00 219.00 142.00" xmlns="http://www.w3.org/2000/svg" xmlns:xlink="http://www.w3.org/1999/xlink">
<g id="graph0" class="graph" transform="scale(1 1) rotate(0) translate(4 138)">
<title>Graphical Class Hierarchy</title>
<polygon fill="#ffffff" stroke="transparent" points="-4,4 -4,-138 215,-138 215,4 -4,4"/>
<!-- Node4 -->
<g id="node1" class="node">
<title>Node4</title>
<polygon fill="#ffffff" stroke="#bfbfbf" points="0,-57.5 0,-76.5 89,-76.5 89,-57.5 0,-57.5"/>
<text text-anchor="middle" x="44.5" y="-64.5" font-family="Helvetica,sans-Serif" font-size="10.00" fill="#000000">ScriptableObject</text>
</g>
<!-- Node0 -->
<g id="node2" class="node">
<title>Node0</title>
<g id="a_node2"><a xlink:href="class_m_v_1_1_marker_data.html" target="_top" xlink:title="MV.MarkerData">
<polygon fill="#ffffff" stroke="#000000" points="125,-114.5 125,-133.5 211,-133.5 211,-114.5 125,-114.5"/>
<text text-anchor="middle" x="168" y="-121.5" font-family="Helvetica,sans-Serif" font-size="10.00" fill="#000000">MV.MarkerData</text>
</a>
</g>
</g>
<!-- Node4&#45;&gt;Node0 -->
<g id="edge1" class="edge">
<title>Node4&#45;&gt;Node0</title>
<path fill="none" stroke="#191970" d="M73.7052,-81.0011C88.9498,-88.2549 107.9339,-97.203 125,-105 131.8296,-108.1202 139.3039,-111.4517 146.0775,-114.4395"/>
<polygon fill="#191970" stroke="#191970" points="74.8177,-77.6541 64.285,-76.5081 71.8042,-83.9722 74.8177,-77.6541"/>
</g>
<!-- Node6 -->
<g id="node3" class="node">
<title>Node6</title>
<g id="a_node3"><a xlink:href="class_m_v_1_1_music_data.html" target="_top" xlink:title="MV.MusicData">
<polygon fill="#ffffff" stroke="#000000" points="127,-76.5 127,-95.5 209,-95.5 209,-76.5 127,-76.5"/>
<text text-anchor="middle" x="168" y="-83.5" font-family="Helvetica,sans-Serif" font-size="10.00" fill="#000000">MV.MusicData</text>
</a>
</g>
</g>
<!-- Node4&#45;&gt;Node6 -->
<g id="edge2" class="edge">
<title>Node4&#45;&gt;Node6</title>
<path fill="none" stroke="#191970" d="M99.0547,-75.393C108.3587,-76.8244 117.8836,-78.2898 126.769,-79.6568"/>
<polygon fill="#191970" stroke="#191970" points="99.5023,-71.9208 89.0863,-73.8594 98.4378,-78.8394 99.5023,-71.9208"/>
</g>
<!-- Node7 -->
<g id="node4" class="node">
<title>Node7</title>
<g id="a_node4"><a xlink:href="class_m_v_1_1_room_data.html" target="_top" xlink:title="Data for each room ">
<polygon fill="#ffffff" stroke="#000000" points="127,-38.5 127,-57.5 209,-57.5 209,-38.5 127,-38.5"/>
<text text-anchor="middle" x="168" y="-45.5" font-family="Helvetica,sans-Serif" font-size="10.00" fill="#000000">MV.RoomData</text>
</a>
</g>
</g>
<!-- Node4&#45;&gt;Node7 -->
<g id="edge3" class="edge">
<title>Node4&#45;&gt;Node7</title>
<path fill="none" stroke="#191970" d="M99.0547,-58.607C108.3587,-57.1756 117.8836,-55.7102 126.769,-54.3432"/>
<polygon fill="#191970" stroke="#191970" points="98.4378,-55.1606 89.0863,-60.1406 99.5023,-62.0792 98.4378,-55.1606"/>
</g>
<!-- Node8 -->
<g id="node5" class="node">
<title>Node8</title>
<g id="a_node5"><a xlink:href="class_m_v_1_1_stage_data.html" target="_top" xlink:title="MV.StageData">
<polygon fill="#ffffff" stroke="#000000" points="127.5,-.5 127.5,-19.5 208.5,-19.5 208.5,-.5 127.5,-.5"/>
<text text-anchor="middle" x="168" y="-7.5" font-family="Helvetica,sans-Serif" font-size="10.00" fill="#000000">MV.StageData</text>
</a>
</g>
</g>
<!-- Node4&#45;&gt;Node8 -->
<g id="edge4" class="edge">
<title>Node4&#45;&gt;Node8</title>
<path fill="none" stroke="#191970" d="M73.7052,-52.9989C88.9498,-45.7451 107.9339,-36.797 125,-29 131.8296,-25.8798 139.3039,-22.5483 146.0775,-19.5605"/>
<polygon fill="#191970" stroke="#191970" points="71.8042,-50.0278 64.285,-57.4919 74.8177,-56.3459 71.8042,-50.0278"/>
</g>
</g>
</svg>
